<svg width="158" height="43" viewBox="0 0 158 43" fill="none" xmlns="http://www.w3.org/2000/svg">
<path d="M9.88 19.16H4.06L3.06 22H0.68L5.66 8.08H8.3L13.28 22H10.88L9.88 19.16ZM9.24 17.3L6.98 10.84L4.7 17.3H9.24ZM14.6853 16.44C14.6853 15.3333 14.912 14.3533 15.3653 13.5C15.832 12.6467 16.4586 11.9867 17.2453 11.52C18.0453 11.04 18.932 10.8 19.9053 10.8C20.7586 10.8 21.512 10.9733 22.1653 11.32C22.832 11.6667 23.3453 12.0867 23.7053 12.58V10.98H26.0053V27.24H23.7053V20.4C23.3453 20.8933 22.8253 21.3133 22.1453 21.66C21.4653 22.0067 20.692 22.18 19.8253 22.18C18.8786 22.18 18.012 21.94 17.2253 21.46C16.452 20.9667 15.832 20.2867 15.3653 19.42C14.912 18.54 14.6853 17.5467 14.6853 16.44ZM23.7053 16.48C23.7053 15.72 23.5453 15.06 23.2253 14.5C22.9186 13.94 22.512 13.5133 22.0053 13.22C21.4986 12.9267 20.952 12.78 20.3653 12.78C19.7786 12.78 19.232 12.9267 18.7253 13.22C18.2186 13.5 17.8053 13.92 17.4853 14.48C17.1786 15.0267 17.0253 15.68 17.0253 16.44C17.0253 17.2 17.1786 17.8667 17.4853 18.44C17.8053 19.0133 18.2186 19.4533 18.7253 19.76C19.2453 20.0533 19.792 20.2 20.3653 20.2C20.952 20.2 21.4986 20.0533 22.0053 19.76C22.512 19.4667 22.9186 19.04 23.2253 18.48C23.5453 17.9067 23.7053 17.24 23.7053 16.48ZM38.98 10.98V22H36.7V20.7C36.34 21.1533 35.8667 21.5133 35.28 21.78C34.7067 22.0333 34.0933 22.16 33.44 22.16C32.5733 22.16 31.7933 21.98 31.1 21.62C30.42 21.26 29.88 20.7267 29.48 20.02C29.0933 19.3133 28.9 18.46 28.9 17.46V10.98H31.16V17.12C31.16 18.1067 31.4067 18.8667 31.9 19.4C32.3933 19.92 33.0667 20.18 33.92 20.18C34.7733 20.18 35.4467 19.92 35.94 19.4C36.4467 18.8667 36.7 18.1067 36.7 17.12V10.98H38.98ZM52.0883 16.22C52.0883 16.6333 52.0616 17.0067 52.0083 17.34H43.5883C43.6549 18.22 43.9816 18.9267 44.5683 19.46C45.1549 19.9933 45.8749 20.26 46.7283 20.26C47.9549 20.26 48.8216 19.7467 49.3283 18.72H51.7883C51.4549 19.7333 50.8483 20.5667 49.9683 21.22C49.1016 21.86 48.0216 22.18 46.7283 22.18C45.6749 22.18 44.7283 21.9467 43.8883 21.48C43.0616 21 42.4083 20.3333 41.9283 19.48C41.4616 18.6133 41.2283 17.6133 41.2283 16.48C41.2283 15.3467 41.4549 14.3533 41.9083 13.5C42.3749 12.6333 43.0216 11.9667 43.8483 11.5C44.6883 11.0333 45.6483 10.8 46.7283 10.8C47.7683 10.8 48.6949 11.0267 49.5083 11.48C50.3216 11.9333 50.9549 12.5733 51.4083 13.4C51.8616 14.2133 52.0883 15.1533 52.0883 16.22ZM49.7083 15.5C49.6949 14.66 49.3949 13.9867 48.8083 13.48C48.2216 12.9733 47.4949 12.72 46.6283 12.72C45.8416 12.72 45.1683 12.9733 44.6083 13.48C44.0483 13.9733 43.7149 14.6467 43.6083 15.5H49.7083ZM53.572 16.48C53.572 15.3467 53.7987 14.3533 54.252 13.5C54.7187 12.6333 55.3587 11.9667 56.172 11.5C56.9854 11.0333 57.9187 10.8 58.972 10.8C60.3054 10.8 61.4054 11.12 62.272 11.76C63.152 12.3867 63.7454 13.2867 64.052 14.46H61.592C61.392 13.9133 61.072 13.4867 60.632 13.18C60.192 12.8733 59.6387 12.72 58.972 12.72C58.0387 12.72 57.292 13.0533 56.732 13.72C56.1854 14.3733 55.912 15.2933 55.912 16.48C55.912 17.6667 56.1854 18.5933 56.732 19.26C57.292 19.9267 58.0387 20.26 58.972 20.26C60.292 20.26 61.1654 19.68 61.592 18.52H64.052C63.732 19.64 63.132 20.5333 62.252 21.2C61.372 21.8533 60.2787 22.18 58.972 22.18C57.9187 22.18 56.9854 21.9467 56.172 21.48C55.3587 21 54.7187 20.3333 54.252 19.48C53.7987 18.6133 53.572 17.6133 53.572 16.48ZM67.4842 9.52C67.0709 9.52 66.7242 9.38 66.4442 9.1C66.1642 8.82 66.0242 8.47333 66.0242 8.06C66.0242 7.64667 66.1642 7.3 66.4442 7.02C66.7242 6.74 67.0709 6.6 67.4842 6.6C67.8842 6.6 68.2242 6.74 68.5042 7.02C68.7842 7.3 68.9242 7.64667 68.9242 8.06C68.9242 8.47333 68.7842 8.82 68.5042 9.1C68.2242 9.38 67.8842 9.52 67.4842 9.52ZM68.6042 10.98V22H66.3242V10.98H68.6042ZM84.9377 10.8C85.8043 10.8 86.5777 10.98 87.2577 11.34C87.951 11.7 88.491 12.2333 88.8777 12.94C89.2777 13.6467 89.4777 14.5 89.4777 15.5V22H87.2177V15.84C87.2177 14.8533 86.971 14.1 86.4777 13.58C85.9843 13.0467 85.311 12.78 84.4577 12.78C83.6043 12.78 82.9243 13.0467 82.4177 13.58C81.9243 14.1 81.6777 14.8533 81.6777 15.84V22H79.4177V15.84C79.4177 14.8533 79.171 14.1 78.6777 13.58C78.1843 13.0467 77.511 12.78 76.6577 12.78C75.8043 12.78 75.1243 13.0467 74.6177 13.58C74.1243 14.1 73.8777 14.8533 73.8777 15.84V22H71.5977V10.98H73.8777V12.24C74.251 11.7867 74.7243 11.4333 75.2977 11.18C75.871 10.9267 76.4843 10.8 77.1377 10.8C78.0177 10.8 78.8043 10.9867 79.4977 11.36C80.191 11.7333 80.7243 12.2733 81.0977 12.98C81.431 12.3133 81.951 11.7867 82.6577 11.4C83.3643 11 84.1243 10.8 84.9377 10.8ZM102.479 16.22C102.479 16.6333 102.452 17.0067 102.399 17.34H93.9789C94.0456 18.22 94.3722 18.9267 94.9589 19.46C95.5456 19.9933 96.2656 20.26 97.1189 20.26C98.3456 20.26 99.2122 19.7467 99.7189 18.72H102.179C101.846 19.7333 101.239 20.5667 100.359 21.22C99.4922 21.86 98.4122 22.18 97.1189 22.18C96.0656 22.18 95.1189 21.9467 94.2789 21.48C93.4522 21 92.7989 20.3333 92.3189 19.48C91.8522 18.6133 91.6189 17.6133 91.6189 16.48C91.6189 15.3467 91.8456 14.3533 92.2989 13.5C92.7656 12.6333 93.4122 11.9667 94.2389 11.5C95.0789 11.0333 96.0389 10.8 97.1189 10.8C98.1589 10.8 99.0856 11.0267 99.8989 11.48C100.712 11.9333 101.346 12.5733 101.799 13.4C102.252 14.2133 102.479 15.1533 102.479 16.22ZM100.099 15.5C100.086 14.66 99.7856 13.9867 99.1989 13.48C98.6122 12.9733 97.8856 12.72 97.0189 12.72C96.2322 12.72 95.5589 12.9733 94.9989 13.48C94.4389 13.9733 94.1056 14.6467 93.9989 15.5H100.099ZM110.283 10.8C111.149 10.8 111.923 10.98 112.603 11.34C113.296 11.7 113.836 12.2333 114.223 12.94C114.609 13.6467 114.803 14.5 114.803 15.5V22H112.543V15.84C112.543 14.8533 112.296 14.1 111.803 13.58C111.309 13.0467 110.636 12.78 109.783 12.78C108.929 12.78 108.249 13.0467 107.743 13.58C107.249 14.1 107.003 14.8533 107.003 15.84V22H104.723V10.98H107.003V12.24C107.376 11.7867 107.849 11.4333 108.423 11.18C109.009 10.9267 109.629 10.8 110.283 10.8ZM120.371 12.84V18.94C120.371 19.3533 120.464 19.6533 120.651 19.84C120.851 20.0133 121.184 20.1 121.651 20.1H123.051V22H121.251C120.224 22 119.438 21.76 118.891 21.28C118.344 20.8 118.071 20.02 118.071 18.94V12.84H116.771V10.98H118.071V8.24H120.371V10.98H123.051V12.84H120.371ZM129.932 22.18C128.892 22.18 127.952 21.9467 127.112 21.48C126.272 21 125.612 20.3333 125.132 19.48C124.652 18.6133 124.412 17.6133 124.412 16.48C124.412 15.36 124.659 14.3667 125.152 13.5C125.646 12.6333 126.319 11.9667 127.172 11.5C128.026 11.0333 128.979 10.8 130.032 10.8C131.086 10.8 132.039 11.0333 132.892 11.5C133.746 11.9667 134.419 12.6333 134.912 13.5C135.406 14.3667 135.652 15.36 135.652 16.48C135.652 17.6 135.399 18.5933 134.892 19.46C134.386 20.3267 133.692 21 132.812 21.48C131.946 21.9467 130.986 22.18 129.932 22.18ZM129.932 20.2C130.519 20.2 131.066 20.06 131.572 19.78C132.092 19.5 132.512 19.08 132.832 18.52C133.152 17.96 133.312 17.28 133.312 16.48C133.312 15.68 133.159 15.0067 132.852 14.46C132.546 13.9 132.139 13.48 131.632 13.2C131.126 12.92 130.579 12.78 129.992 12.78C129.406 12.78 128.859 12.92 128.352 13.2C127.859 13.48 127.466 13.9 127.172 14.46C126.879 15.0067 126.732 15.68 126.732 16.48C126.732 17.6667 127.032 18.5867 127.632 19.24C128.246 19.88 129.012 20.2 129.932 20.2Z" fill="white"/>
<rect x="115.089" y="21.3767" width="40.9035" height="16.4451" transform="rotate(-6.47146 115.089 21.3767)" fill="#FE53D8"/>
<rect x="72.4875" y="26.209" width="44.3118" height="16.4451" transform="rotate(-6.47146 72.4875 26.209)" fill="#FFEC42"/>
<path d="M81.4484 33.6806C81.386 33.1308 81.4434 32.6311 81.6206 32.1817C81.8043 31.7314 82.0785 31.3682 82.443 31.092C82.8134 30.8085 83.2404 30.6393 83.7239 30.5844C84.0816 30.5438 84.4417 30.5835 84.8042 30.7034C85.1726 30.8159 85.4741 30.9897 85.7088 31.2248L85.409 28.5817L86.5516 28.4521L87.3857 35.805L86.243 35.9346L86.1494 35.1099C85.994 35.3959 85.7605 35.6438 85.4488 35.8536C85.1438 36.0626 84.7793 36.1912 84.3553 36.2393C83.8784 36.2934 83.4276 36.2237 83.0031 36.0303C82.5845 35.8296 82.2349 35.5271 81.9542 35.1228C81.6794 34.7111 81.5108 34.2304 81.4484 33.6806ZM85.9319 33.1922C85.8891 32.8146 85.7724 32.4957 85.5819 32.2355C85.398 31.9746 85.1719 31.7855 84.9036 31.6684C84.6354 31.5512 84.3555 31.5091 84.064 31.5422C83.7726 31.5752 83.5093 31.6789 83.2741 31.8532C83.0381 32.0209 82.8564 32.2528 82.729 32.5491C82.6075 32.8379 82.5681 33.1712 82.6109 33.5487C82.6538 33.9263 82.7675 34.2489 82.9522 34.5164C83.1435 34.7833 83.3736 34.9786 83.6426 35.1024C83.9175 35.2188 84.1974 35.2608 84.4822 35.2285C84.7737 35.1955 85.037 35.0918 85.2722 34.9175C85.5074 34.7432 85.6854 34.5083 85.8062 34.2128C85.9328 33.91 85.9747 33.5697 85.9319 33.1922ZM88.1826 32.9167C88.1202 32.3669 88.1776 31.8673 88.3547 31.4178C88.5385 30.9675 88.8126 30.6043 89.1771 30.3282C89.5475 30.0446 89.9712 29.8758 90.4482 29.8217C90.8787 29.7728 91.2628 29.8165 91.6003 29.9527C91.9436 30.0814 92.2256 30.2608 92.4463 30.4907L92.3561 29.6958L93.4988 29.5662L94.1198 35.0411L92.9772 35.1707L92.8847 34.3559C92.7219 34.6361 92.4847 34.881 92.173 35.0908C91.8614 35.3006 91.4935 35.4296 91.0696 35.4777C90.5993 35.531 90.1552 35.4606 89.7373 35.2665C89.3187 35.0657 88.969 34.7632 88.6883 34.3589C88.4135 33.9473 88.2449 33.4666 88.1826 32.9167ZM92.6661 32.4283C92.6232 32.0507 92.5066 31.7318 92.316 31.4717C92.1321 31.2107 91.906 31.0217 91.6378 30.9045C91.3695 30.7873 91.0897 30.7453 90.7982 30.7783C90.5067 30.8114 90.2434 30.915 90.0082 31.0893C89.7723 31.257 89.5906 31.4889 89.4632 31.7852C89.3416 32.0741 89.3023 32.4073 89.3451 32.7849C89.3879 33.1625 89.5017 33.485 89.6863 33.7526C89.8776 34.0194 90.1078 34.2147 90.3768 34.3385C90.6517 34.4549 90.9315 34.497 91.2164 34.4647C91.5078 34.4316 91.7711 34.3279 92.0063 34.1537C92.2415 33.9794 92.4195 33.7445 92.5403 33.449C92.667 33.1461 92.7089 32.8059 92.6661 32.4283ZM97.605 34.7364C97.1745 34.7852 96.7783 34.753 96.4166 34.6397C96.0607 34.519 95.7684 34.3375 95.5396 34.0951C95.3101 33.846 95.1699 33.5566 95.1191 33.2269L96.2915 33.0939C96.3377 33.3235 96.4692 33.5065 96.6859 33.643C96.9086 33.772 97.1722 33.8193 97.477 33.7847C97.7949 33.7487 98.0332 33.6612 98.192 33.5225C98.3565 33.3763 98.4279 33.2072 98.4061 33.0151C98.3828 32.8097 98.2662 32.6687 98.0562 32.5918C97.8528 32.5143 97.5324 32.4399 97.0949 32.3688C96.6715 32.3027 96.3245 32.2314 96.0542 32.1547C95.7838 32.078 95.5402 31.9413 95.3233 31.7445C95.113 31.5469 94.9876 31.2693 94.947 30.9116C94.9139 30.6201 94.97 30.3454 95.1152 30.0874C95.2596 29.8227 95.4829 29.6028 95.7851 29.4276C96.0939 29.2517 96.457 29.1401 96.8743 29.0928C97.497 29.0221 98.0151 29.1244 98.4288 29.3995C98.8483 29.6673 99.1021 30.0712 99.1902 30.6114L98.0575 30.7399C98.0098 30.497 97.8883 30.3129 97.6929 30.1875C97.4975 30.062 97.2475 30.0166 96.9427 30.0511C96.6447 30.085 96.4225 30.1672 96.2763 30.2978C96.1301 30.4285 96.0675 30.5865 96.0886 30.772C96.1051 30.9177 96.172 31.0343 96.2892 31.1216C96.4065 31.209 96.5447 31.2738 96.7038 31.3161C96.8622 31.3518 97.0953 31.3959 97.4031 31.4482C97.8126 31.5091 98.1496 31.5815 98.4141 31.6656C98.6844 31.7423 98.9244 31.8761 99.1339 32.067C99.3434 32.258 99.4714 32.5286 99.5179 32.8789C99.5532 33.1903 99.4986 33.4782 99.3542 33.7429C99.2098 34.0075 98.9865 34.2274 98.6843 34.4026C98.3887 34.577 98.029 34.6883 97.605 34.7364ZM105.628 28.0999C106.058 28.051 106.453 28.0969 106.811 28.2374C107.175 28.3772 107.474 28.6117 107.706 28.941C107.938 29.2703 108.082 29.6833 108.138 30.1802L108.504 33.4094L107.382 33.5368L107.034 30.4764C106.979 29.9862 106.814 29.6259 106.539 29.3953C106.264 29.1582 105.915 29.0636 105.491 29.1117C105.067 29.1598 104.744 29.3306 104.522 29.6241C104.307 29.9103 104.226 30.2984 104.282 30.7886L104.629 33.849L103.496 33.9775L102.875 28.5026L104.008 28.3741L104.079 29.0001C104.239 28.7538 104.454 28.5516 104.725 28.3935C105.002 28.2345 105.303 28.1367 105.628 28.0999ZM112.334 33.0656C111.817 33.1242 111.337 33.0613 110.894 32.8768C110.449 32.6856 110.084 32.3916 109.797 31.9947C109.51 31.5912 109.334 31.1079 109.271 30.5448C109.207 29.9884 109.274 29.481 109.47 29.0226C109.666 28.5643 109.963 28.1951 110.361 27.9152C110.759 27.6352 111.219 27.4656 111.743 27.4062C112.266 27.3469 112.753 27.4091 113.203 27.5928C113.653 27.7766 114.025 28.0698 114.319 28.4726C114.613 28.8754 114.792 29.355 114.855 29.9114C114.918 30.4679 114.848 30.9756 114.645 31.4348C114.442 31.8939 114.136 32.2675 113.726 32.5555C113.321 32.8362 112.857 33.0062 112.334 33.0656ZM112.223 32.0819C112.514 32.0489 112.778 31.9485 113.014 31.7808C113.256 31.6124 113.441 31.3801 113.569 31.0838C113.696 30.7876 113.737 30.4407 113.692 30.0433C113.647 29.6458 113.533 29.32 113.35 29.0657C113.166 28.8047 112.94 28.619 112.673 28.5084C112.405 28.3979 112.126 28.3591 111.834 28.3922C111.543 28.4252 111.279 28.5256 111.043 28.6933C110.814 28.8602 110.642 29.091 110.528 29.3857C110.413 29.6739 110.378 30.0167 110.423 30.4141C110.49 31.0037 110.691 31.4438 111.026 31.7346C111.367 32.018 111.766 32.1338 112.223 32.0819ZM118.287 31.2733L119.331 26.636L120.533 26.4997L119.068 32.2112L117.716 32.3645L115.019 27.1252L116.231 26.9877L118.287 31.2733ZM121.884 25.6118C121.678 25.6351 121.498 25.5851 121.343 25.4618C121.188 25.3384 121.099 25.1741 121.076 24.9687C121.053 24.7634 121.103 24.5833 121.226 24.4284C121.349 24.2735 121.514 24.1844 121.719 24.1611C121.918 24.1386 122.095 24.189 122.249 24.3123C122.404 24.4356 122.493 24.6 122.517 24.8053C122.54 25.0107 122.49 25.1908 122.367 25.3457C122.243 25.5006 122.082 25.5893 121.884 25.6118ZM122.522 26.274L123.143 31.7489L122.011 31.8774L121.39 26.4025L122.522 26.274ZM126.762 25.7026C127.192 25.6538 127.587 25.6996 127.945 25.8401C128.309 25.9799 128.608 26.2145 128.84 26.5437C129.072 26.873 129.216 27.2861 129.272 27.7829L129.638 31.0122L128.516 31.1396L128.168 28.0792C128.113 27.589 127.948 27.2286 127.673 26.9981C127.398 26.7609 127.049 26.6664 126.625 26.7145C126.201 26.7626 125.878 26.9334 125.656 27.2269C125.441 27.513 125.36 27.9012 125.416 28.3914L125.763 31.4518L124.63 31.5802L124.009 26.1054L125.142 25.9769L125.213 26.6029C125.373 26.3566 125.588 26.1544 125.859 25.9962C126.136 25.8373 126.437 25.7394 126.762 25.7026ZM133.284 24.9628C133.701 24.9154 134.082 24.9628 134.427 25.1048C134.779 25.2461 135.067 25.4818 135.292 25.8118C135.524 26.1411 135.668 26.5541 135.725 27.051L136.091 30.2803L134.968 30.4076L134.621 27.3472C134.566 26.8571 134.401 26.4967 134.126 26.2661C133.851 26.029 133.501 25.9344 133.078 25.9825C132.654 26.0306 132.331 26.2014 132.109 26.4949C131.893 26.7811 131.813 27.1693 131.869 27.6594L132.216 30.7198L131.083 30.8483L130.249 23.4955L131.382 23.367L131.667 25.8808C131.833 25.6272 132.054 25.4209 132.332 25.262C132.615 25.1023 132.933 25.0026 133.284 24.9628ZM136.845 27.3969C136.783 26.8471 136.84 26.3474 137.017 25.8979C137.201 25.4477 137.475 25.0845 137.84 24.8083C138.21 24.5248 138.634 24.3559 139.111 24.3018C139.541 24.253 139.925 24.2967 140.263 24.4328C140.606 24.5616 140.888 24.741 141.109 24.9709L141.019 24.176L142.161 24.0464L142.782 29.5213L141.64 29.6509L141.547 28.8361C141.384 29.1162 141.147 29.3612 140.836 29.571C140.524 29.7808 140.156 29.9097 139.732 29.9578C139.262 30.0112 138.818 29.9408 138.4 29.7466C137.981 29.5459 137.632 29.2434 137.351 28.8391C137.076 28.4274 136.907 27.9467 136.845 27.3969ZM141.329 26.9085C141.286 26.5309 141.169 26.212 140.979 25.9518C140.795 25.6909 140.569 25.5018 140.3 25.3847C140.032 25.2675 139.752 25.2254 139.461 25.2585C139.169 25.2915 138.906 25.3952 138.671 25.5695C138.435 25.7372 138.253 25.9691 138.126 26.2654C138.004 26.5542 137.965 26.8875 138.008 27.265C138.05 27.6426 138.164 27.9652 138.349 28.2327C138.54 28.4995 138.77 28.6949 139.039 28.8187C139.314 28.9351 139.594 28.9771 139.879 28.9448C140.17 28.9118 140.434 28.8081 140.669 28.6338C140.904 28.4595 141.082 28.2246 141.203 27.9291C141.33 27.6263 141.371 27.286 141.329 26.9085ZM146.268 29.2165C145.837 29.2653 145.441 29.2331 145.079 29.1198C144.723 28.9992 144.431 28.8176 144.202 28.5752C143.973 28.3262 143.832 28.0368 143.782 27.7071L144.954 27.5741C145 27.8037 145.132 27.9867 145.348 28.1231C145.571 28.2522 145.835 28.2994 146.14 28.2649C146.457 28.2288 146.696 28.1414 146.854 28.0026C147.019 27.8565 147.09 27.6874 147.069 27.4952C147.045 27.2899 146.929 27.1488 146.719 27.072C146.515 26.9944 146.195 26.9201 145.757 26.8489C145.334 26.7829 144.987 26.7115 144.717 26.6349C144.446 26.5582 144.203 26.4214 143.986 26.2246C143.776 26.0271 143.65 25.7494 143.61 25.3917C143.576 25.1003 143.633 24.8255 143.778 24.5675C143.922 24.3029 144.145 24.083 144.448 23.9078C144.756 23.7319 145.12 23.6202 145.537 23.5729C146.16 23.5023 146.678 23.6045 147.091 23.8797C147.511 24.1474 147.765 24.5514 147.853 25.0916L146.72 25.22C146.672 24.9772 146.551 24.7931 146.355 24.6676C146.16 24.5422 145.91 24.4967 145.605 24.5313C145.307 24.5651 145.085 24.6473 144.939 24.778C144.793 24.9086 144.73 25.0667 144.751 25.2522C144.768 25.3979 144.835 25.5144 144.952 25.6018C145.069 25.6891 145.207 25.754 145.366 25.7963C145.525 25.832 145.758 25.876 146.066 25.9283C146.475 25.9892 146.812 26.0617 147.077 26.1458C147.347 26.2224 147.587 26.3562 147.796 26.5472C148.006 26.7381 148.134 27.0087 148.18 27.3591C148.216 27.6704 148.161 27.9584 148.017 28.223C147.872 28.4877 147.649 28.7076 147.347 28.8827C147.051 29.0572 146.692 29.1684 146.268 29.2165Z" fill="black"/>
</svg>
