<svg width="254" height="119" viewBox="0 0 254 119" fill="none" xmlns="http://www.w3.org/2000/svg">
<path d="M24.7727 77.2783L28.7273 82.6117H31.3636C32.8268 82.6117 34 83.7983 34 85.2783V89.2783H31.3636C31.3636 90.3392 30.947 91.3566 30.2054 92.1067C29.4638 92.8569 28.4579 93.2783 27.4091 93.2783C26.3603 93.2783 25.3544 92.8569 24.6128 92.1067C23.8712 91.3566 23.4545 90.3392 23.4545 89.2783H15.5455C15.5455 90.3392 15.1288 91.3566 14.3872 92.1067C13.6456 92.8569 12.6397 93.2783 11.5909 93.2783C10.5421 93.2783 9.53624 92.8569 8.79462 92.1067C8.053 91.3566 7.63636 90.3392 7.63636 89.2783H5V85.2783C5 83.7983 6.17318 82.6117 7.63636 82.6117L11.5909 77.2783H24.7727ZM17.5227 79.2783H12.5795L10.0882 82.6117H17.5227V79.2783ZM19.5 79.2783V82.6117H26.2755L23.7841 79.2783H19.5ZM11.5909 87.2783C11.0665 87.2783 10.5636 87.489 10.1928 87.8641C9.82196 88.2392 9.61364 88.7479 9.61364 89.2783C9.61364 89.8088 9.82196 90.3175 10.1928 90.6925C10.5636 91.0676 11.0665 91.2783 11.5909 91.2783C12.1153 91.2783 12.6182 91.0676 12.9891 90.6925C13.3599 90.3175 13.5682 89.8088 13.5682 89.2783C13.5682 88.7479 13.3599 88.2392 12.9891 87.8641C12.6182 87.489 12.1153 87.2783 11.5909 87.2783ZM27.4091 87.2783C26.8847 87.2783 26.3818 87.489 26.011 87.8641C25.6401 88.2392 25.4318 88.7479 25.4318 89.2783C25.4318 89.8088 25.6401 90.3175 26.011 90.6925C26.3818 91.0676 26.8847 91.2783 27.4091 91.2783C27.9335 91.2783 28.4364 91.0676 28.8072 90.6925C29.178 90.3175 29.3864 89.8088 29.3864 89.2783C29.3864 88.7479 29.178 88.2392 28.8072 87.8641C28.4364 87.489 27.9335 87.2783 27.4091 87.2783Z" fill="#FE53D8"/>
<path d="M66.1237 66.892L72.2151 69.5335L74.4982 68.2153C75.7654 67.4837 77.3747 67.9248 78.1147 69.2065L80.1147 72.6706L77.8316 73.9888C78.362 74.9075 78.5099 75.997 78.2427 77.0174C77.9755 78.0379 77.3151 78.9058 76.4068 79.4302C75.4985 79.9546 74.4167 80.0925 73.3994 79.8137C72.3821 79.5349 71.5125 78.8621 70.9821 77.9434L64.1326 81.8979C64.6631 82.8166 64.811 83.9061 64.5438 84.9265C64.2766 85.947 63.6162 86.8149 62.7079 87.3393C61.7996 87.8637 60.7178 88.0016 59.7005 87.7228C58.6831 87.444 57.8136 86.7712 57.2832 85.8524L55 87.1706L53 83.7065C52.26 82.4248 52.6827 80.8105 53.9498 80.0789L54.7079 73.4829L66.1237 66.892ZM60.845 72.249L56.5641 74.7206L56.0732 78.853L62.5117 75.1358L60.845 72.249ZM62.5574 71.2604L64.224 74.1471L70.0918 70.7594L66.2675 69.1183L62.5574 71.2604ZM59.7079 82.1431C59.2537 82.4053 58.9236 82.8393 58.79 83.3495C58.6564 83.8597 58.7303 84.4044 58.9955 84.8638C59.2607 85.3232 59.6955 85.6596 60.2042 85.799C60.7128 85.9384 61.2537 85.8694 61.7079 85.6072C62.162 85.345 62.4922 84.9111 62.6258 84.4008C62.7594 83.8906 62.6855 83.3459 62.4203 82.8865C62.155 82.4272 61.7203 82.0908 61.2116 81.9514C60.7029 81.8119 60.162 81.8809 59.7079 82.1431ZM73.4068 74.234C72.9527 74.4962 72.6225 74.9302 72.4889 75.4404C72.3553 75.9506 72.4293 76.4953 72.6945 76.9547C72.9597 77.4141 73.3945 77.7505 73.9031 77.8899C74.4118 78.0293 74.9527 77.9603 75.4068 77.6981C75.861 77.4359 76.1912 77.002 76.3248 76.4918C76.4584 75.9815 76.3844 75.4368 76.1192 74.9774C75.854 74.5181 75.4192 74.1817 74.9106 74.0423C74.4019 73.9028 73.861 73.9718 73.4068 74.234Z" fill="#FFEC42"/>
<path d="M94.3883 43.3322L98.5164 38.132L97.8341 35.5855C97.4554 34.1721 98.2979 32.7318 99.7275 32.3487L103.591 31.3135L104.274 33.86C105.298 33.5854 106.389 33.7245 107.305 34.2467C108.222 34.7689 108.889 35.6315 109.161 36.6445C109.432 37.6576 109.285 38.7383 108.753 39.6488C108.22 40.5593 107.345 41.225 106.321 41.4996L108.368 49.1392C109.392 48.8646 110.483 49.0037 111.399 49.5259C112.316 50.0481 112.983 50.9106 113.255 51.9237C113.526 52.9368 113.38 54.0174 112.847 54.9279C112.314 55.8385 111.439 56.5042 110.415 56.7788L111.097 59.3253L107.233 60.3606C105.804 60.7437 104.354 59.9176 103.975 58.5043L97.8 56.0648L94.3883 43.3322ZM98.1966 49.8175L99.476 54.5922L103.341 56.136L101.416 48.9548L98.1966 49.8175ZM97.6848 47.9076L100.905 47.0449L99.151 40.5003L96.576 43.7695L97.6848 47.9076ZM107.459 53.4766C107.595 53.9832 107.929 54.4144 108.387 54.6755C108.845 54.9366 109.391 55.0062 109.903 54.8689C110.415 54.7316 110.853 54.3987 111.119 53.9435C111.385 53.4882 111.459 52.9479 111.323 52.4414C111.187 51.9348 110.854 51.5036 110.395 51.2425C109.937 50.9814 109.392 50.9118 108.879 51.0491C108.367 51.1864 107.93 51.5193 107.663 51.9745C107.397 52.4298 107.324 52.9701 107.459 53.4766ZM103.365 38.1974C103.501 38.704 103.835 39.1352 104.293 39.3963C104.751 39.6574 105.296 39.727 105.809 39.5897C106.321 39.4524 106.759 39.1195 107.025 38.6643C107.291 38.209 107.365 37.6687 107.229 37.1622C107.093 36.6556 106.759 36.2244 106.301 35.9633C105.843 35.7022 105.298 35.6326 104.785 35.7699C104.273 35.9072 103.835 36.2401 103.569 36.6953C103.303 37.1506 103.229 37.6909 103.365 38.1974Z" fill="#6DFFB9"/>
<path d="M146.525 91.8384L147.5 85.2709L145.635 83.4067C144.601 82.3721 144.61 80.7034 145.657 79.6569L148.485 76.8284L150.349 78.6926C151.1 77.9425 152.114 77.5177 153.168 77.5116C154.223 77.5056 155.233 77.9189 155.974 78.6605C156.716 79.4021 157.129 80.4114 157.123 81.4662C157.117 82.521 156.692 83.5351 155.942 84.2852L161.535 89.8778C162.285 89.1276 163.299 88.7028 164.354 88.6968C165.408 88.6908 166.418 89.104 167.159 89.8456C167.901 90.5873 168.314 91.5965 168.308 92.6513C168.302 93.7062 167.877 94.7202 167.127 95.4704L168.991 97.3345L166.163 100.163C165.116 101.209 163.448 101.219 162.413 100.184L155.846 101.159L146.525 91.8384ZM153.065 95.5507L156.561 99.0461L160.679 98.4507L155.422 93.1937L153.065 95.5507ZM151.667 94.1526L154.024 91.7955L149.233 87.0046L148.638 91.1233L151.667 94.1526ZM162.917 94.0883C163.288 94.4591 163.792 94.6657 164.32 94.6627C164.847 94.6597 165.354 94.4473 165.729 94.0722C166.104 93.6971 166.317 93.1901 166.32 92.6627C166.323 92.1353 166.116 91.6307 165.745 91.2599C165.374 90.889 164.87 90.6824 164.342 90.6854C163.815 90.6884 163.308 90.9009 162.933 91.2759C162.558 91.651 162.345 92.158 162.342 92.6854C162.339 93.2128 162.546 93.7175 162.917 94.0883ZM151.732 82.9031C152.102 83.2739 152.607 83.4806 153.134 83.4776C153.662 83.4745 154.169 83.2621 154.544 82.8871C154.919 82.512 155.131 82.005 155.134 81.4776C155.137 80.9501 154.931 80.4455 154.56 80.0747C154.189 79.7039 153.685 79.4973 153.157 79.5003C152.63 79.5033 152.123 79.7157 151.748 80.0908C151.373 80.4659 151.16 80.9729 151.157 81.5003C151.154 82.0277 151.361 82.5323 151.732 82.9031Z" fill="#49E4DD"/>
<path d="M214.054 94.5724L208.854 90.4443L206.307 91.1266C204.894 91.5053 203.453 90.6628 203.07 89.2332L202.035 85.3695L204.582 84.6871C204.307 83.6624 204.446 82.5718 204.968 81.6553C205.491 80.7388 206.353 80.0714 207.366 79.7999C208.379 79.5285 209.46 79.6752 210.37 80.2078C211.281 80.7405 211.947 81.6154 212.221 82.6401L219.861 80.5931C219.586 79.5684 219.725 78.4778 220.248 77.5613C220.77 76.6447 221.632 75.9773 222.645 75.7059C223.658 75.4344 224.739 75.5812 225.65 76.1138C226.56 76.6464 227.226 77.5213 227.5 78.5461L230.047 77.8637L231.082 81.7274C231.465 83.157 230.639 84.6069 229.226 84.9856L226.787 91.1607L214.054 94.5724ZM220.539 90.7641L225.314 89.4847L226.858 85.6201L219.676 87.5444L220.539 90.7641ZM218.629 91.2759L217.767 88.0561L211.222 89.8097L214.491 92.3847L218.629 91.2759ZM224.198 81.5014C224.705 81.3657 225.136 81.032 225.397 80.5737C225.658 80.1155 225.728 79.5702 225.591 79.0578C225.453 78.5455 225.12 78.108 224.665 77.8417C224.21 77.5754 223.67 77.502 223.163 77.6377C222.656 77.7735 222.225 78.1072 221.964 78.5654C221.703 79.0237 221.633 79.569 221.771 80.0813C221.908 80.5937 222.241 81.0311 222.696 81.2975C223.151 81.5638 223.692 81.6372 224.198 81.5014ZM208.919 85.5955C209.426 85.4598 209.857 85.126 210.118 84.6678C210.379 84.2095 210.449 83.6642 210.311 83.1519C210.174 82.6395 209.841 82.2021 209.386 81.9357C208.931 81.6694 208.39 81.596 207.884 81.7318C207.377 81.8675 206.946 82.2012 206.685 82.6595C206.424 83.1177 206.354 83.663 206.492 84.1754C206.629 84.6877 206.962 85.1252 207.417 85.3915C207.872 85.6578 208.413 85.7312 208.919 85.5955Z" fill="white"/>
<path d="M1 105.779C36 113.112 126.5 112.396 126.5 41.2787C126.5 -6.99994 59.5 10.5002 88 68.2785C111.637 116.197 159 128.779 253.5 105.779" stroke="#939393" stroke-width="3" stroke-dasharray="6 6"/>
</svg>
