<svg width="172" height="123" viewBox="0 0 172 123" fill="none" xmlns="http://www.w3.org/2000/svg">
<circle cx="77.5" cy="61.5" r="60" fill="#090909" stroke="#FFEC42" stroke-width="3"/>
<circle cx="77.5" cy="61.5" r="48.5" fill="#FFEC42"/>
<circle cx="26.5" cy="83.5" r="26.5" fill="#050505"/>
<circle cx="139" cy="42" r="31" fill="#050505"/>
<path d="M55 42H101V64.7778H91.8V83H87.2V64.7778H68.8V83H64.2V64.7778H55V42ZM94.031 60.2222L96.4 57.8761V51.4528L87.545 60.2222H94.031ZM81.036 60.2222L94.836 46.5556H88.35L74.55 60.2222H81.036ZM68.018 60.2222L81.818 46.5556H75.309L61.509 60.2222H68.018ZM62.314 46.5556L59.6 49.2433V55.6667L68.8 46.5556H62.314Z" fill="#060606"/>
<path d="M119.774 40.5154C118.798 41.4912 118.798 43.0879 119.774 44.0637L123.322 47.6119L125.097 45.8378L121.548 42.2896L125.097 38.7413L123.322 36.9672L119.774 40.5154ZM133.967 26.3224L135.741 28.0965L139.29 24.5483L142.838 28.0965L144.612 26.3224L141.064 22.7741C140.088 21.7984 138.491 21.7984 137.515 22.7741L133.967 26.3224ZM131.306 34.306C127.403 38.2091 127.403 44.5959 131.306 48.499C133.524 50.7167 136.628 51.6924 139.467 51.3376L142.838 54.7085L144.612 52.9343L141.951 50.2731L143.725 48.499L146.386 51.1602L148.16 49.3861L145.499 46.7249L147.273 44.9507L149.934 47.6119L151.708 45.8378L148.338 42.467C148.604 39.5397 147.717 36.5236 145.499 34.306C141.596 30.4029 135.209 30.4029 131.306 34.306ZM137.515 47.6119C136.54 48.5877 134.943 48.5877 133.967 47.6119C132.991 46.6362 132.991 45.0395 133.967 44.0637C134.943 43.0879 136.54 43.0879 137.515 44.0637C138.491 45.0395 138.491 46.6362 137.515 47.6119ZM141.507 47.1684L140.177 43.1766L144.168 44.5072L141.507 47.1684ZM144.612 40.5154C143.636 41.4912 142.039 41.4912 141.064 40.5154C140.088 39.5396 140.088 37.9429 141.064 36.9672C142.039 35.9914 143.636 35.9914 144.612 36.9672C145.588 37.9429 145.588 39.5397 144.612 40.5154ZM133.967 58.2567L137.515 61.805C138.491 62.7807 140.088 62.7807 141.064 61.805L144.612 58.2567L142.838 56.4826L139.29 60.0308L135.741 56.4826L133.967 58.2567ZM153.483 38.7413L157.031 42.2896L153.483 45.8378L155.257 47.6119L158.805 44.0637C159.781 43.0879 159.781 41.4912 158.805 40.5154L155.257 36.9672L153.483 38.7413Z" fill="#FE53D8"/>
<path d="M24.8774 79.5415C25.742 79.1365 26.734 79.0956 27.6351 79.4277C28.5362 79.7599 29.2726 80.4379 29.6823 81.3126C30.0921 82.1874 30.1415 83.1871 29.8199 84.092C29.4982 84.9969 28.8317 85.7328 27.9671 86.1378C27.1025 86.5428 26.1105 86.5837 25.2094 86.2516C24.3083 85.9194 23.5719 85.2414 23.1622 84.3667C22.7524 83.492 22.703 82.4922 23.0246 81.5873C23.3463 80.6824 24.0128 79.9465 24.8774 79.5415ZM34.1465 99.3305C30.968 100.819 27.5524 101.293 24.3092 100.862L25.8425 90.089C27.0831 90.1916 28.3383 89.9857 29.512 89.436C30.6856 88.8862 31.6473 88.0537 32.3627 87.0349L41.6203 92.7531C39.8756 95.5209 37.3251 97.8416 34.1465 99.3305ZM10.1218 90.4748C6.92394 83.6476 8.24921 75.8681 12.9596 70.6052L20.9047 78.1044C19.1496 80.2135 18.6507 83.2222 19.9021 85.8937L10.1218 90.4748ZM32.9424 79.7856C31.6911 77.1141 29.0603 75.5713 26.3165 75.5696L25.6413 64.6651C32.6999 64.4154 39.5248 68.3773 42.7227 75.2045L32.9424 79.7856Z" fill="#6DFFB9"/>
</svg>
