<svg width="240" height="69" viewBox="0 0 240 69" fill="none" xmlns="http://www.w3.org/2000/svg">
<path d="M59.8 30.248H63.048V27H64.552V30.248H67.8V31.752H64.552V35H63.048V31.752H59.8V30.248Z" fill="white"/>
<path d="M172.44 32.072V33.576H164.44V32.072H172.44ZM172.44 28.424V29.928H164.44V28.424H172.44Z" fill="white"/>
<path d="M4.9 57V50H5.9V57H4.9ZM8.76273 51.95H10.2727L10.9827 52.36V49.7H11.9527V57.05H11.2227L10.9827 56.64L10.2727 57.05H8.76273L7.60273 56.38V52.62L8.76273 51.95ZM10.9827 56.18V52.82H8.57273V56.18H10.9827ZM17.5 56.13V57H14.71L13.55 56.33V52.62L14.71 51.95H16.34L17.5 52.62V54.84H14.52V56.13H17.5ZM14.52 52.82V53.97H16.53V52.82H14.52ZM20.0669 52V57H19.0969V52H20.0669ZM19.0469 50.77V49.7H20.1169V50.77H19.0469ZM22.4352 54.95V56.18H24.4452V54.95H22.4352ZM22.6252 57.05L21.4652 56.38V54.75L22.6252 54.08H24.4452V52.87H21.9652V52H24.2552L25.4152 52.67V57.05H25.1552L24.4452 56.64L23.7352 57.05H22.6252Z" fill="#939393"/>
<path d="M25.9091 18.6364H30V21.3636H25.9091V18.6364ZM0 18.6364H4.09091V21.3636H0V18.6364ZM16.3636 5V9.09091H13.6364V5H16.3636ZM5.34545 8.40909L8.25 11.3273L6.31364 13.25L3.40909 10.3591L5.34545 8.40909ZM21.75 11.3136L24.6409 8.40909L26.5909 10.3591L23.6864 13.25L21.75 11.3136ZM15 11.8182C17.17 11.8182 19.251 12.6802 20.7854 14.2146C22.3198 15.749 23.1818 17.83 23.1818 20C23.1818 23.0273 21.5318 25.6727 19.0909 27.0909V29.5455C19.0909 29.9071 18.9472 30.254 18.6915 30.5097C18.4358 30.7654 18.0889 30.9091 17.7273 30.9091H12.2727C11.9111 30.9091 11.5642 30.7654 11.3085 30.5097C11.0528 30.254 10.9091 29.9071 10.9091 29.5455V27.0909C8.46818 25.6727 6.81818 23.0273 6.81818 20C6.81818 17.83 7.68019 15.749 9.21458 14.2146C10.749 12.6802 12.83 11.8182 15 11.8182ZM17.7273 32.2727V33.6364C17.7273 33.998 17.5836 34.3449 17.3279 34.6006C17.0721 34.8563 16.7253 35 16.3636 35H13.6364C13.2747 35 12.9279 34.8563 12.6721 34.6006C12.4164 34.3449 12.2727 33.998 12.2727 33.6364V32.2727H17.7273ZM13.6364 28.1818H16.3636V25.2773C18.7227 24.6773 20.4545 22.5364 20.4545 20C20.4545 18.5534 19.8799 17.166 18.8569 16.1431C17.834 15.1201 16.4466 14.5455 15 14.5455C13.5534 14.5455 12.166 15.1201 11.1431 16.1431C10.1201 17.166 9.54545 18.5534 9.54545 20C9.54545 22.5364 11.2773 24.6773 13.6364 25.2773V28.1818Z" fill="#FFEC42"/>
<path d="M197.9 53.3V50.62L199.06 49.95H201.39L202.55 50.62V51.65H201.55V50.85H198.9V52.97H201.39L202.55 53.64V56.38L201.39 57.05H198.96L197.8 56.38V55.35H198.8V56.15H201.55V53.97H199.06L197.9 53.3ZM208.495 56.38L207.335 57.05H205.405L204.245 56.38V52.62L205.405 51.95H207.335L208.495 52.62V56.38ZM205.215 52.82V56.18H207.525V52.82H205.215ZM209.695 52.87V52H210.615V50.37L211.775 49.7H212.785V50.57H211.585V52H212.785V52.87H211.585V57H210.615V52.87H209.695ZM213.582 52.87V52H214.502V51.16L215.472 50.6V52H216.672V52.87H215.472V56.13H216.672V57H215.662L214.502 56.33V52.87H213.582ZM222.143 57L221.063 53.18H221.043L219.973 57H218.823L217.573 52H218.473L219.423 55.91H219.443L220.543 52H221.573L222.673 55.91H222.693L223.643 52H224.543L223.293 57H222.143ZM226.412 54.95V56.18H228.422V54.95H226.412ZM226.602 57.05L225.442 56.38V54.75L226.602 54.08H228.422V52.87H225.942V52H228.232L229.392 52.67V57.05H229.132L228.422 56.64L227.712 57.05H226.602ZM233.783 52.87H231.963V57H230.993V52H231.723L231.963 52.41L232.673 52H233.783V52.87ZM238.83 56.13V57H236.04L234.88 56.33V52.62L236.04 51.95H237.67L238.83 52.62V54.84H235.85V56.13H238.83ZM235.85 52.82V53.97H237.86V52.82H235.85Z" fill="#939393"/>
<path d="M215.364 15.425L217.545 17.6L213.182 21.95L217.545 26.3L215.364 28.475L208.818 21.95L215.364 15.425ZM222.636 28.475L220.455 26.3L224.818 21.95L220.455 17.6L222.636 15.425L229.182 21.95L222.636 28.475ZM232.091 6H205.909C205.138 6 204.398 6.30553 203.852 6.84939C203.306 7.39325 203 8.13087 203 8.9V32.1C203 32.8691 203.306 33.6068 203.852 34.1506C204.398 34.6945 205.138 35 205.909 35H232.091C232.862 35 233.602 34.6945 234.148 34.1506C234.694 33.6068 235 32.8691 235 32.1V8.9C235 8.13087 234.694 7.39325 234.148 6.84939C233.602 6.30553 232.862 6 232.091 6ZM232.091 32.1H205.909V11.8H232.091V32.1Z" fill="#6DFFB9"/>
<path d="M98.067 47.3V44.62L99.227 43.95H101.557L102.717 44.62V45.65H101.717V44.85H99.067V46.97H101.557L102.717 47.64V50.38L101.557 51.05H99.127L97.967 50.38V49.35H98.967V50.15H101.717V47.97H99.227L98.067 47.3ZM108.662 50.38L107.502 51.05H105.572L104.412 50.38V46.62L105.572 45.95H107.502L108.662 46.62V50.38ZM105.382 46.82V50.18H107.692V46.82H105.382ZM111.422 51L110.262 50.33V43.7H111.232V50.13H112.432V51H111.422ZM113.436 50.38V46H114.406V50.18H116.716V46H117.686V51.05H116.956L116.716 50.64L116.006 51.05H114.596L113.436 50.38ZM121.175 51H120.445L119.285 50.33V46.67L120.445 46H123.035V46.87H120.255V50.13H123.035V51H121.715L121.495 51.37L122.155 51.75V52.49L121.295 52.99H120.595V52.49H121.585V51.84H120.695L121.175 51ZM125.202 48.95V50.18H127.212V48.95H125.202ZM125.392 51.05L124.232 50.38V48.75L125.392 48.08H127.212V46.87H124.732V46H127.022L128.182 46.67V51.05H127.922L127.212 50.64L126.502 51.05H125.392ZM125.432 44.33H125.412V45.15H124.732V44.21L125.672 43.66L127.092 44.48H127.112V43.66H127.792V44.6L126.852 45.15L125.432 44.33ZM134.033 50.38L132.873 51.05H130.943L129.783 50.38V46.62L130.943 45.95H132.873L134.033 46.62V50.38ZM130.753 46.82V50.18H133.063V46.82H130.753ZM97.8532 62.95V64.18H99.8632V62.95H97.8532ZM98.0432 65.05L96.8832 64.38V62.75L98.0432 62.08H99.8632V60.87H97.3832V60H99.6732L100.833 60.67V65.05H100.573L99.8632 64.64L99.1532 65.05H98.0432ZM104.115 59.95H105.625L106.785 60.62V64.38L105.625 65.05H104.115L103.405 64.64L102.695 65.05H102.435V57.7H103.405V60.36L104.115 59.95ZM103.405 60.82V64.18H105.815V60.82H103.405ZM112.142 62.7V64.33L110.982 65H108.382V64.13H111.172V62.9H109.542L108.382 62.23V60.67L109.542 60H112.042V60.87H109.352V62.03H110.982L112.142 62.7ZM113.343 60.87V60H114.263V59.16L115.233 58.6V60H116.433V60.87H115.233V64.13H116.433V65H115.423L114.263 64.33V60.87H113.343ZM120.625 60.87H118.805V65H117.835V60H118.565L118.805 60.41L119.515 60H120.625V60.87ZM122.492 62.95V64.18H124.502V62.95H122.492ZM122.682 65.05L121.522 64.38V62.75L122.682 62.08H124.502V60.87H122.022V60H124.312L125.472 60.67V65.05H125.212L124.502 64.64L123.792 65.05H122.682ZM126.673 60.87V60H127.593V59.16L128.563 58.6V60H129.763V60.87H128.563V64.13H129.763V65H128.753L127.593 64.33V60.87H126.673ZM131.935 62.95V64.18H133.945V62.95H131.935ZM132.125 65.05L130.965 64.38V62.75L132.125 62.08H133.945V60.87H131.465V60H133.755L134.915 60.67V65.05H134.655L133.945 64.64L133.235 65.05H132.125Z" fill="#939393"/>
<path d="M110.979 4.97084L107.527 6.90394L109.46 3.45197L107.527 0L110.979 1.9331L114.431 0L112.497 3.45197L114.431 6.90394L110.979 4.97084ZM127.548 18.5026L131 16.5695L129.067 20.0214L131 23.4734L127.548 21.5403L124.096 23.4734L126.029 20.0214L124.096 16.5695L127.548 18.5026ZM131 0L129.067 3.45197L131 6.90394L127.548 4.97084L124.096 6.90394L126.029 3.45197L124.096 0L127.548 1.9331L131 0ZM119.042 14.8849L122.411 11.5158L119.484 8.5885L116.115 11.9576L119.042 14.8849ZM120.465 7.30437L123.696 10.5354C124.234 11.0463 124.234 11.9438 123.696 12.4823L107.582 28.5961C107.043 29.1346 106.146 29.1346 105.635 28.5961L102.404 25.3651C101.865 24.8542 101.865 23.9567 102.404 23.4182L118.518 7.30437C119.056 6.76586 119.954 6.76586 120.465 7.30437Z" fill="#FE53D8"/>
</svg>
