<svg width="185" height="122" viewBox="0 0 185 122" fill="none" xmlns="http://www.w3.org/2000/svg">
<g filter="url(#filter0_d_410_26)">
<rect x="69" y="10" width="55" height="82" rx="12" fill="url(#paint0_linear_410_26)" shape-rendering="crispEdges"/>
</g>
<path d="M21.3333 48.7H15.76C15.2 47.134 13.7333 46 12 46C10.2667 46 8.8 47.134 8.24 48.7H2.66667C1.95942 48.7 1.28115 48.9845 0.781048 49.4908C0.280951 49.9972 0 50.6839 0 51.4V70.3C0 71.0161 0.280951 71.7028 0.781048 72.2092C1.28115 72.7155 1.95942 73 2.66667 73H21.3333C22.0406 73 22.7189 72.7155 23.219 72.2092C23.719 71.7028 24 71.0161 24 70.3V51.4C24 50.6839 23.719 49.9972 23.219 49.4908C22.7189 48.9845 22.0406 48.7 21.3333 48.7ZM12 48.7C12.3536 48.7 12.6928 48.8422 12.9428 49.0954C13.1929 49.3486 13.3333 49.692 13.3333 50.05C13.3333 50.408 13.1929 50.7514 12.9428 51.0046C12.6928 51.2578 12.3536 51.4 12 51.4C11.6464 51.4 11.3072 51.2578 11.0572 51.0046C10.8071 50.7514 10.6667 50.408 10.6667 50.05C10.6667 49.692 10.8071 49.3486 11.0572 49.0954C11.3072 48.8422 11.6464 48.7 12 48.7ZM5.33333 54.1H18.6667V51.4H21.3333V70.3H2.66667V51.4H5.33333V54.1Z" fill="#6DFFB9"/>
<path d="M105.333 48.7H99.76C99.2 47.134 97.7333 46 96 46C94.2667 46 92.8 47.134 92.24 48.7H86.6667C85.9594 48.7 85.2811 48.9845 84.781 49.4908C84.281 49.9972 84 50.6839 84 51.4V70.3C84 71.0161 84.281 71.7028 84.781 72.2092C85.2811 72.7155 85.9594 73 86.6667 73H105.333C106.041 73 106.719 72.7155 107.219 72.2092C107.719 71.7028 108 71.0161 108 70.3V51.4C108 50.6839 107.719 49.9972 107.219 49.4908C106.719 48.9845 106.041 48.7 105.333 48.7ZM96 48.7C96.3536 48.7 96.6928 48.8422 96.9428 49.0954C97.1929 49.3486 97.3333 49.692 97.3333 50.05C97.3333 50.408 97.1929 50.7514 96.9428 51.0046C96.6928 51.2578 96.3536 51.4 96 51.4C95.6464 51.4 95.3072 51.2578 95.0572 51.0046C94.8071 50.7514 94.6667 50.408 94.6667 50.05C94.6667 49.692 94.8071 49.3486 95.0572 49.0954C95.3072 48.8422 95.6464 48.7 96 48.7ZM89.3333 54.1H102.667V51.4H105.333V70.3H86.6667V51.4H89.3333V54.1Z" fill="white"/>
<path d="M9.26 25.14V23.726L11.92 22.2H13.04V30.74H15.42V32H9.26V30.74H11.64V23.768L9.26 25.14Z" fill="#565656"/>
<path d="M94.66 30.74H99.56V32H93.26V27.604L94.884 26.666H98.16V23.46H94.66V24.72H93.26V23.138L94.884 22.2H97.936L99.56 23.138V26.988L97.936 27.926H94.66V30.74Z" fill="#565656"/>
<path d="M178.23 37.07H174.884L173.26 36.132V34.55H174.66V35.81H178.454V32.562H175.584V31.302H178.454V28.39H174.66V29.65H173.26V28.068L174.884 27.13H178.23L179.854 28.068V31.218L178.636 31.918V31.946L179.854 32.646V36.132L178.23 37.07Z" fill="#565656"/>
<path d="M36 61.5H55.5" stroke="#424242" stroke-width="3" stroke-linecap="round" stroke-linejoin="round" stroke-dasharray="4 5"/>
<path d="M137 61.5H156.5" stroke="#424242" stroke-width="3" stroke-linecap="round" stroke-linejoin="round" stroke-dasharray="4 5"/>
<path d="M177 65C175.89 65 175 64.1 175 63C175 61.89 175.89 61 177 61C177.53 61 178.039 61.2107 178.414 61.5858C178.789 61.9609 179 62.4696 179 63C179 63.5304 178.789 64.0391 178.414 64.4142C178.039 64.7893 177.53 65 177 65ZM183 68V58H171V68H183ZM183 56C183.53 56 184.039 56.2107 184.414 56.5858C184.789 56.9609 185 57.4696 185 58V68C185 68.5304 184.789 69.0391 184.414 69.4142C184.039 69.7893 183.53 70 183 70H171C169.89 70 169 69.1 169 68V58C169 56.89 169.89 56 171 56H172V54C172 52.6739 172.527 51.4021 173.464 50.4645C174.402 49.5268 175.674 49 177 49C177.657 49 178.307 49.1293 178.913 49.3806C179.52 49.6319 180.071 50.0002 180.536 50.4645C181 50.9288 181.368 51.48 181.619 52.0866C181.871 52.6932 182 53.3434 182 54V56H183ZM177 51C176.204 51 175.441 51.3161 174.879 51.8787C174.316 52.4413 174 53.2044 174 54V56H180V54C180 53.2044 179.684 52.4413 179.121 51.8787C178.559 51.3161 177.796 51 177 51Z" fill="#565656"/>
<path d="M18 84.736L11.1429 91L8 88.129L8.80571 87.393L11.1429 89.5227L17.1943 84L18 84.736Z" fill="#6DFFB9"/>
<defs>
<filter id="filter0_d_410_26" x="49" y="0" width="95" height="122" filterUnits="userSpaceOnUse" color-interpolation-filters="sRGB">
<feFlood flood-opacity="0" result="BackgroundImageFix"/>
<feColorMatrix in="SourceAlpha" type="matrix" values="0 0 0 0 0 0 0 0 0 0 0 0 0 0 0 0 0 0 127 0" result="hardAlpha"/>
<feOffset dy="10"/>
<feGaussianBlur stdDeviation="10"/>
<feComposite in2="hardAlpha" operator="out"/>
<feColorMatrix type="matrix" values="0 0 0 0 0 0 0 0 0 0 0 0 0 0 0 0 0 0 0.25 0"/>
<feBlend mode="normal" in2="BackgroundImageFix" result="effect1_dropShadow_410_26"/>
<feBlend mode="normal" in="SourceGraphic" in2="effect1_dropShadow_410_26" result="shape"/>
</filter>
<linearGradient id="paint0_linear_410_26" x1="97" y1="92" x2="97" y2="34" gradientUnits="userSpaceOnUse">
<stop stop-color="#202020"/>
<stop offset="0.0001"/>
<stop offset="1" stop-color="#202020" stop-opacity="0"/>
</linearGradient>
</defs>
</svg>
