<svg class="logo" viewBox="0 0 100 67" fill="none" xmlns="http://www.w3.org/2000/svg">
<path d="M0.74 29.3763C0.74 28.0163 1.05333 26.7963 1.68 25.7163C2.32 24.6363 3.18 23.7963 4.26 23.1963C5.35333 22.583 6.54667 22.2763 7.84 22.2763C9.32 22.2763 10.6333 22.643 11.78 23.3763C12.94 24.0963 13.78 25.123 14.3 26.4563H11.56C11.2 25.723 10.7 25.1763 10.06 24.8163C9.42 24.4563 8.68 24.2763 7.84 24.2763C6.92 24.2763 6.1 24.483 5.38 24.8963C4.66 25.3096 4.09333 25.903 3.68 26.6763C3.28 27.4496 3.08 28.3496 3.08 29.3763C3.08 30.403 3.28 31.303 3.68 32.0763C4.09333 32.8496 4.66 33.4496 5.38 33.8763C6.1 34.2896 6.92 34.4963 7.84 34.4963C8.68 34.4963 9.42 34.3163 10.06 33.9563C10.7 33.5963 11.2 33.0496 11.56 32.3163H14.3C13.78 33.6496 12.94 34.6763 11.78 35.3963C10.6333 36.1163 9.32 36.4763 7.84 36.4763C6.53333 36.4763 5.34 36.1763 4.26 35.5763C3.18 34.963 2.32 34.1163 1.68 33.0363C1.05333 31.9563 0.74 30.7363 0.74 29.3763ZM21.7488 36.5363C20.7088 36.5363 19.7688 36.303 18.9288 35.8363C18.0888 35.3563 17.4288 34.6896 16.9488 33.8363C16.4688 32.9696 16.2288 31.9696 16.2288 30.8363C16.2288 29.7163 16.4754 28.723 16.9688 27.8563C17.4621 26.9896 18.1354 26.323 18.9888 25.8563C19.8421 25.3896 20.7954 25.1563 21.8488 25.1563C22.9021 25.1563 23.8554 25.3896 24.7088 25.8563C25.5621 26.323 26.2354 26.9896 26.7288 27.8563C27.2221 28.723 27.4688 29.7163 27.4688 30.8363C27.4688 31.9563 27.2154 32.9496 26.7088 33.8163C26.2021 34.683 25.5088 35.3563 24.6288 35.8363C23.7621 36.303 22.8021 36.5363 21.7488 36.5363ZM21.7488 34.5563C22.3354 34.5563 22.8821 34.4163 23.3888 34.1363C23.9088 33.8563 24.3288 33.4363 24.6488 32.8763C24.9688 32.3163 25.1288 31.6363 25.1288 30.8363C25.1288 30.0363 24.9754 29.363 24.6688 28.8163C24.3621 28.2563 23.9554 27.8363 23.4488 27.5563C22.9421 27.2763 22.3954 27.1363 21.8088 27.1363C21.2221 27.1363 20.6754 27.2763 20.1688 27.5563C19.6754 27.8363 19.2821 28.2563 18.9888 28.8163C18.6954 29.363 18.5488 30.0363 18.5488 30.8363C18.5488 32.023 18.8488 32.943 19.4488 33.5963C20.0621 34.2363 20.8288 34.5563 21.7488 34.5563ZM28.9627 30.7963C28.9627 29.6896 29.1893 28.7096 29.6427 27.8563C30.1093 27.003 30.736 26.343 31.5227 25.8763C32.3227 25.3963 33.2093 25.1563 34.1827 25.1563C34.9027 25.1563 35.6093 25.3163 36.3027 25.6363C37.0093 25.943 37.5693 26.3563 37.9827 26.8763V21.5563H40.2827V36.3563H37.9827V34.6963C37.6093 35.2296 37.0893 35.6696 36.4227 36.0163C35.7693 36.363 35.016 36.5363 34.1627 36.5363C33.2027 36.5363 32.3227 36.2963 31.5227 35.8163C30.736 35.323 30.1093 34.643 29.6427 33.7763C29.1893 32.8963 28.9627 31.903 28.9627 30.7963ZM37.9827 30.8363C37.9827 30.0763 37.8227 29.4163 37.5027 28.8563C37.196 28.2963 36.7893 27.8696 36.2827 27.5763C35.776 27.283 35.2293 27.1363 34.6427 27.1363C34.056 27.1363 33.5093 27.283 33.0027 27.5763C32.496 27.8563 32.0827 28.2763 31.7627 28.8363C31.456 29.383 31.3027 30.0363 31.3027 30.7963C31.3027 31.5563 31.456 32.223 31.7627 32.7963C32.0827 33.3696 32.496 33.8096 33.0027 34.1163C33.5227 34.4096 34.0693 34.5563 34.6427 34.5563C35.2293 34.5563 35.776 34.4096 36.2827 34.1163C36.7893 33.823 37.196 33.3963 37.5027 32.8363C37.8227 32.263 37.9827 31.5963 37.9827 30.8363ZM53.3773 30.5763C53.3773 30.9896 53.3507 31.363 53.2973 31.6963H44.8773C44.944 32.5763 45.2707 33.283 45.8573 33.8163C46.444 34.3496 47.164 34.6163 48.0173 34.6163C49.244 34.6163 50.1107 34.103 50.6173 33.0763H53.0773C52.744 34.0896 52.1373 34.923 51.2573 35.5763C50.3907 36.2163 49.3107 36.5363 48.0173 36.5363C46.964 36.5363 46.0173 36.303 45.1773 35.8363C44.3507 35.3563 43.6973 34.6896 43.2173 33.8363C42.7507 32.9696 42.5173 31.9696 42.5173 30.8363C42.5173 29.703 42.744 28.7096 43.1973 27.8563C43.664 26.9896 44.3107 26.323 45.1373 25.8563C45.9773 25.3896 46.9373 25.1563 48.0173 25.1563C49.0573 25.1563 49.984 25.383 50.7973 25.8363C51.6107 26.2896 52.244 26.9296 52.6973 27.7563C53.1507 28.5696 53.3773 29.5096 53.3773 30.5763ZM50.9973 29.8563C50.984 29.0163 50.684 28.343 50.0973 27.8363C49.5107 27.3296 48.784 27.0763 47.9173 27.0763C47.1307 27.0763 46.4573 27.3296 45.8973 27.8363C45.3373 28.3296 45.004 29.003 44.8973 29.8563H50.9973Z" fill="white"/>
<path d="M77.6 31.5763C77.6 31.9896 77.5733 32.363 77.52 32.6963H69.1C69.1667 33.5763 69.4933 34.283 70.08 34.8163C70.6667 35.3496 71.3867 35.6163 72.24 35.6163C73.4667 35.6163 74.3333 35.103 74.84 34.0763H77.3C76.9667 35.0896 76.36 35.923 75.48 36.5763C74.6133 37.2163 73.5333 37.5363 72.24 37.5363C71.1867 37.5363 70.24 37.303 69.4 36.8363C68.5733 36.3563 67.92 35.6896 67.44 34.8363C66.9733 33.9696 66.74 32.9696 66.74 31.8363C66.74 30.703 66.9667 29.7096 67.42 28.8563C67.8867 27.9896 68.5333 27.323 69.36 26.8563C70.2 26.3896 71.16 26.1563 72.24 26.1563C73.28 26.1563 74.2067 26.383 75.02 26.8363C75.8333 27.2896 76.4667 27.9296 76.92 28.7563C77.3733 29.5696 77.6 30.5096 77.6 31.5763ZM75.22 30.8563C75.2067 30.0163 74.9067 29.343 74.32 28.8363C73.7333 28.3296 73.0067 28.0763 72.14 28.0763C71.3533 28.0763 70.68 28.3296 70.12 28.8363C69.56 29.3296 69.2267 30.003 69.12 30.8563H75.22ZM83.8438 37.5363C82.9771 37.5363 82.1971 37.383 81.5038 37.0763C80.8238 36.7563 80.2838 36.3296 79.8838 35.7963C79.4838 35.2496 79.2704 34.643 79.2438 33.9763H81.6038C81.6438 34.443 81.8638 34.8363 82.2638 35.1563C82.6771 35.463 83.1904 35.6163 83.8038 35.6163C84.4438 35.6163 84.9371 35.4963 85.2838 35.2563C85.6438 35.003 85.8238 34.683 85.8238 34.2963C85.8238 33.883 85.6238 33.5763 85.2238 33.3763C84.8371 33.1763 84.2171 32.9563 83.3638 32.7163C82.5371 32.4896 81.8638 32.2696 81.3438 32.0563C80.8238 31.843 80.3704 31.5163 79.9838 31.0763C79.6104 30.6363 79.4238 30.0563 79.4238 29.3363C79.4238 28.7496 79.5971 28.2163 79.9438 27.7363C80.2904 27.243 80.7838 26.8563 81.4238 26.5763C82.0771 26.2963 82.8238 26.1563 83.6638 26.1563C84.9171 26.1563 85.9238 26.4763 86.6838 27.1163C87.4571 27.743 87.8704 28.603 87.9238 29.6963H85.6438C85.6038 29.203 85.4038 28.8096 85.0438 28.5163C84.6838 28.223 84.1971 28.0763 83.5838 28.0763C82.9838 28.0763 82.5238 28.1896 82.2038 28.4163C81.8838 28.643 81.7238 28.943 81.7238 29.3163C81.7238 29.6096 81.8304 29.8563 82.0438 30.0563C82.2571 30.2563 82.5171 30.4163 82.8238 30.5363C83.1304 30.643 83.5838 30.783 84.1838 30.9563C84.9838 31.1696 85.6371 31.3896 86.1438 31.6163C86.6638 31.8296 87.1104 32.1496 87.4838 32.5763C87.8571 33.003 88.0504 33.5696 88.0638 34.2763C88.0638 34.903 87.8904 35.463 87.5438 35.9563C87.1971 36.4496 86.7038 36.8363 86.0638 37.1163C85.4371 37.3963 84.6971 37.5363 83.8438 37.5363ZM94.5273 37.5363C93.6607 37.5363 92.8807 37.383 92.1873 37.0763C91.5073 36.7563 90.9673 36.3296 90.5673 35.7963C90.1673 35.2496 89.954 34.643 89.9273 33.9763H92.2873C92.3273 34.443 92.5473 34.8363 92.9473 35.1563C93.3607 35.463 93.874 35.6163 94.4873 35.6163C95.1273 35.6163 95.6207 35.4963 95.9673 35.2563C96.3273 35.003 96.5073 34.683 96.5073 34.2963C96.5073 33.883 96.3073 33.5763 95.9073 33.3763C95.5207 33.1763 94.9007 32.9563 94.0473 32.7163C93.2207 32.4896 92.5473 32.2696 92.0273 32.0563C91.5073 31.843 91.054 31.5163 90.6673 31.0763C90.294 30.6363 90.1073 30.0563 90.1073 29.3363C90.1073 28.7496 90.2807 28.2163 90.6273 27.7363C90.974 27.243 91.4673 26.8563 92.1073 26.5763C92.7607 26.2963 93.5073 26.1563 94.3473 26.1563C95.6007 26.1563 96.6073 26.4763 97.3673 27.1163C98.1407 27.743 98.554 28.603 98.6073 29.6963H96.3273C96.2873 29.203 96.0873 28.8096 95.7273 28.5163C95.3673 28.223 94.8807 28.0763 94.2673 28.0763C93.6673 28.0763 93.2073 28.1896 92.8873 28.4163C92.5673 28.643 92.4073 28.943 92.4073 29.3163C92.4073 29.6096 92.514 29.8563 92.7273 30.0563C92.9407 30.2563 93.2007 30.4163 93.5073 30.5363C93.814 30.643 94.2673 30.783 94.8673 30.9563C95.6673 31.1696 96.3207 31.3896 96.8273 31.6163C97.3473 31.8296 97.794 32.1496 98.1673 32.5763C98.5407 33.003 98.734 33.5696 98.7473 34.2763C98.7473 34.903 98.574 35.463 98.2273 35.9563C97.8807 36.4496 97.3873 36.8363 96.7473 37.1163C96.1207 37.3963 95.3807 37.5363 94.5273 37.5363Z" fill="white"/>
<g filter="url(#filter0_d_410_10)">
<path d="M52.0996 19.9188L44.2136 21.6734L42.5626 13.765L44.5145 10.7401L46.1519 18.6695L54.0515 16.8938L52.0996 19.9188Z" fill="#6DFFB9"/>
</g>
<g filter="url(#filter1_d_410_10)">
<path d="M31.815 12.9562L33.9657 14.8717L34.3812 21.3214L27.9266 21.6523L25.776 19.7368L32.2455 19.4192L31.815 12.9562Z" fill="#FFEC42"/>
</g>
<g filter="url(#filter2_d_410_10)">
<path d="M41.7572 46.6293L41.2143 44.5386L43.643 40.3436L47.8057 42.8271L48.3486 44.9178L44.1821 42.4197L41.7572 46.6293Z" fill="#FE53D8"/>
</g>
<path d="M60.78 35.5163H65.48V37.3563H58.5V23.4563H60.78V35.5163Z" fill="white"/>
<defs>
<filter id="filter0_d_410_10" x="29.4451" y="0.740097" width="34.6064" height="34.0102" filterUnits="userSpaceOnUse" color-interpolation-filters="sRGB">
<feFlood flood-opacity="0" result="BackgroundImageFix"/>
<feColorMatrix in="SourceAlpha" type="matrix" values="0 0 0 0 0 0 0 0 0 0 0 0 0 0 0 0 0 0 127 0" result="hardAlpha"/>
<feOffset/>
<feGaussianBlur stdDeviation="5"/>
<feComposite in2="hardAlpha" operator="out"/>
<feColorMatrix type="matrix" values="0 0 0 0 0.0958334 0 0 0 0 1 0 0 0 0 0.566 0 0 0 0.3 0"/>
<feBlend mode="normal" in2="BackgroundImageFix" result="effect1_dropShadow_410_10"/>
<feBlend mode="normal" in="SourceGraphic" in2="effect1_dropShadow_410_10" result="shape"/>
</filter>
<filter id="filter1_d_410_10" x="15.776" y="2.95622" width="31.6248" height="31.7555" filterUnits="userSpaceOnUse" color-interpolation-filters="sRGB">
<feFlood flood-opacity="0" result="BackgroundImageFix"/>
<feColorMatrix in="SourceAlpha" type="matrix" values="0 0 0 0 0 0 0 0 0 0 0 0 0 0 0 0 0 0 127 0" result="hardAlpha"/>
<feOffset/>
<feGaussianBlur stdDeviation="5"/>
<feComposite in2="hardAlpha" operator="out"/>
<feColorMatrix type="matrix" values="0 0 0 0 0.984314 0 0 0 0 1 0 0 0 0 0.12549 0 0 0 0.5 0"/>
<feBlend mode="normal" in2="BackgroundImageFix" result="effect1_dropShadow_410_10"/>
<feBlend mode="normal" in="SourceGraphic" in2="effect1_dropShadow_410_10" result="shape"/>
</filter>
<filter id="filter2_d_410_10" x="20.3473" y="19.4878" width="48.0013" height="47.1414" filterUnits="userSpaceOnUse" color-interpolation-filters="sRGB">
<feFlood flood-opacity="0" result="BackgroundImageFix"/>
<feColorMatrix in="SourceAlpha" type="matrix" values="0 0 0 0 0 0 0 0 0 0 0 0 0 0 0 0 0 0 127 0" result="hardAlpha"/>
<feOffset/>
<feGaussianBlur stdDeviation="10"/>
<feComposite in2="hardAlpha" operator="out"/>
<feColorMatrix type="matrix" values="0 0 0 0 1 0 0 0 0 0.233333 0 0 0 0 0.601333 0 0 0 0.5 0"/>
<feBlend mode="normal" in2="BackgroundImageFix" result="effect1_dropShadow_410_10"/>
<feBlend mode="normal" in="SourceGraphic" in2="effect1_dropShadow_410_10" result="shape"/>
</filter>
</defs>
</svg>
