<svg width="208" height="69" viewBox="0 0 208 69" fill="none" xmlns="http://www.w3.org/2000/svg">
<circle cx="30.5" cy="36.5" r="30.5" fill="white"/>
<path d="M32.3666 23L35.3762 23.6222L29.6334 51L26.6238 50.3778L32.3666 23ZM42.6545 37L37.142 31.4156V27.0133L47 37L37.142 46.9711V42.5689L42.6545 37ZM15 37L24.858 27.0133V31.4156L19.3455 37L24.858 42.5689V46.9711L15 37Z" fill="black"/>
<rect x="139.433" y="34.4331" width="48.0831" height="48.0831" transform="rotate(-45 139.433 34.4331)" fill="#FE53D8"/>
<path d="M166.325 44.9143V23.9143H176.795L180.275 25.9243V34.8343L176.795 36.8443H169.325V44.9143H166.325ZM169.325 26.6143V34.1443H177.275V26.6143H169.325Z" fill="#4B1840"/>
<path d="M167.739 43.5V22.5H178.209L181.689 24.51V33.42L178.209 35.43H170.739V43.5H167.739ZM170.739 25.2V32.73H178.689V25.2H170.739Z" fill="white"/>
<path d="M100.08 28L101.92 28.79L100.8 31.39H105V33.39H99.95L98.23 37.39H105V39.39H97.38L95.92 42.79L94.08 42L95.2 39.39H91V37.39H96.06L97.77 33.39H91V31.39H98.63L100.08 28Z" fill="#939393"/>
</svg>
