<svg width="225" height="115" viewBox="0 0 225 115" fill="none" xmlns="http://www.w3.org/2000/svg">
<ellipse cx="28.5" cy="53" rx="21.5" ry="21" fill="black"/>
<path d="M102.5 36L125.45 71.25H79.5503L102.5 36Z" fill="black"/>
<rect x="160" y="33" width="39" height="39" fill="black"/>
<path d="M161.052 93.3V90.62L162.212 89.95H164.542L165.702 90.62V91.65H164.702V90.85H162.052V92.97H164.542L165.702 93.64V96.38L164.542 97.05H162.112L160.952 96.38V95.35H161.952V96.15H164.702V93.97H162.212L161.052 93.3ZM168.368 92V97H167.398V92H168.368ZM167.348 90.77V89.7H168.418V90.77H167.348ZM173.726 94.7V96.33L172.566 97H169.966V96.13H172.756V94.9H171.126L169.966 94.23V92.67L171.126 92H173.626V92.87H170.936V94.03H172.566L173.726 94.7ZM174.927 92.87V92H175.847V91.16L176.817 90.6V92H178.017V92.87H176.817V96.13H178.017V97H177.007L175.847 96.33V92.87H174.927ZM183.369 96.13V97H180.579L179.419 96.33V92.62L180.579 91.95H182.209L183.369 92.62V94.84H180.389V96.13H183.369ZM180.389 92.82V93.97H182.399V92.82H180.389ZM191.696 92.62V97H190.726V92.82H188.816V97H187.846V92.82H185.936V97H184.966V91.95H185.696L185.936 92.36L186.646 91.95H187.656L188.586 92.49L189.526 91.95H190.536L191.696 92.62ZM194.066 94.95V96.18H196.076V94.95H194.066ZM194.256 97.05L193.096 96.38V94.75L194.256 94.08H196.076V92.87H193.596V92H195.886L197.046 92.67V97.05H196.786L196.076 96.64L195.366 97.05H194.256ZM174.339 111L173.259 107.18H173.239L172.169 111H171.019L169.769 106H170.669L171.619 109.91H171.639L172.739 106H173.769L174.869 109.91H174.889L175.839 106H176.739L175.489 111H174.339ZM181.787 110.13V111H178.997L177.837 110.33V106.62L178.997 105.95H180.627L181.787 106.62V108.84H178.807V110.13H181.787ZM178.807 106.82V107.97H180.817V106.82H178.807ZM185.064 105.95H186.574L187.734 106.62V110.38L186.574 111.05H185.064L184.354 110.64L183.644 111.05H183.384V103.7H184.354V106.36L185.064 105.95ZM184.354 106.82V110.18H186.764V106.82H184.354Z" fill="#939393"/>
<rect x="29.2886" y="2.83275" width="37.2101" height="37.2101" transform="rotate(45 29.2886 2.83275)" fill="#FE53D8" stroke="#0B0B0B" stroke-width="3"/>
<path d="M15.7757 31.625L30.6249 16.7757L38.0283 24.1792L39.0678 28.0612L32.7675 34.3615L28.8854 33.322L23.6033 28.04L17.897 33.7463L15.7757 31.625ZM30.8371 20.8063L25.5125 26.1308L31.134 31.7523L36.4585 26.4278L30.8371 20.8063Z" fill="#5E104C"/>
<path d="M17.7757 31.625L32.6249 16.7757L40.0283 24.1792L41.0678 28.0612L34.7675 34.3615L30.8854 33.322L25.6033 28.04L19.897 33.7463L17.7757 31.625ZM32.8371 20.8063L27.5125 26.1308L33.134 31.7523L38.4585 26.4278L32.8371 20.8063Z" fill="white"/>
<path d="M216.5 32.5C216.5 45.1741 206.007 55.5 193 55.5C179.993 55.5 169.5 45.1741 169.5 32.5C169.5 19.8259 179.993 9.5 193 9.5C206.007 9.5 216.5 19.8259 216.5 32.5Z" fill="#FFEC42" stroke="#0C0C0C" stroke-width="3"/>
<path d="M185.325 43.9143V22.9143H195.795L199.275 24.9243V33.8343L195.795 35.8443H188.325V43.9143H185.325ZM188.325 25.6143V33.1443H196.275V25.6143H188.325Z" fill="#484312"/>
<path d="M186.739 42.5V21.5H197.209L200.689 23.51V32.42L197.209 34.43H189.739V42.5H186.739ZM189.739 24.2V31.73H197.689V24.2H189.739Z" fill="white"/>
<path d="M78.0472 42.25L103 3.75757L127.953 42.25H78.0472Z" fill="#6DFFB9" stroke="#0C0C0C" stroke-width="3"/>
<path d="M106.87 37.2769L94.7456 30.2769L98.2356 24.232L100.556 22.8929L105.7 25.8629L105.701 28.542L103.211 32.8548L107.87 35.5448L106.87 37.2769ZM97.3045 29.4448L101.652 31.9548L104.302 27.3649L99.9545 24.8549L97.3045 29.4448Z" fill="#1C4D35"/>
<path d="M106.352 35.345L94.228 28.345L97.718 22.3002L100.039 20.961L105.183 23.931L105.183 26.6102L102.693 30.923L107.352 33.613L106.352 35.345ZM96.7869 27.513L101.134 30.023L103.784 25.433L99.4369 22.923L96.7869 27.513Z" fill="white"/>
<path d="M83.1343 90L85.6343 97H84.6543L84.0643 95.34H80.9643L80.3743 97H79.3943L81.8943 90H83.1343ZM82.5043 90.99L81.2843 94.44H83.7443L82.5243 90.99H82.5043ZM89.825 97.05H88.315L87.605 96.64V99H86.635V91.95H87.365L87.605 92.36L88.315 91.95H89.825L90.985 92.62V96.38L89.825 97.05ZM87.605 92.82V96.18H90.015V92.82H87.605ZM93.7422 97L92.5822 96.33V89.7H93.5522V96.13H94.7522V97H93.7422ZM96.7261 92V97H95.7561V92H96.7261ZM95.7061 90.77V89.7H96.7761V90.77H95.7061ZM99.2944 92.87V96.13H102.074V97H99.4844L98.3244 96.33V92.67L99.4844 92H102.074V92.87H99.2944ZM104.241 94.95V96.18H106.251V94.95H104.241ZM104.431 97.05L103.271 96.38V94.75L104.431 94.08H106.251V92.87H103.771V92H106.061L107.221 92.67V97.05H106.961L106.251 96.64L105.541 97.05H104.431ZM108.422 92.87V92H109.342V91.16L110.312 90.6V92H111.512V92.87H110.312V96.13H111.512V97H110.502L109.342 96.33V92.87H108.422ZM113.884 92V97H112.914V92H113.884ZM112.864 90.77V89.7H113.934V90.77H112.864ZM115.833 92L117.303 96.08H117.323L118.803 92H119.753L117.903 97H116.733L114.883 92H115.833ZM125.006 96.38L123.846 97.05H121.916L120.756 96.38V92.62L121.916 91.95H123.846L125.006 92.62V96.38ZM121.726 92.82V96.18H124.036V92.82H121.726ZM94.322 106.62V111H93.352V106.82H91.442V111H90.472V106.82H88.562V111H87.592V105.95H88.322L88.562 106.36L89.272 105.95H90.282L91.212 106.49L92.152 105.95H93.162L94.322 106.62ZM100.172 110.38L99.0121 111.05H97.0821L95.9221 110.38V106.62L97.0821 105.95H99.0121L100.172 106.62V110.38ZM96.8921 106.82V110.18H99.2021V106.82H96.8921ZM103.452 105.95H104.962L106.122 106.62V110.38L104.962 111.05H103.452L102.742 110.64L102.032 111.05H101.772V103.7H102.742V106.36L103.452 105.95ZM102.742 106.82V110.18H105.152V106.82H102.742ZM108.689 106V111H107.719V106H108.689ZM107.669 104.77V103.7H108.739V104.77H107.669ZM111.447 111L110.287 110.33V103.7H111.257V110.13H112.457V111H111.447ZM117.411 110.13V111H114.621L113.461 110.33V106.62L114.621 105.95H116.251L117.411 106.62V108.84H114.431V110.13H117.411ZM114.431 106.82V107.97H116.441V106.82H114.431Z" fill="#939393"/>
<path d="M11.0523 93.3V90.62L12.2123 89.95H14.5423L15.7023 90.62V91.65H14.7023V90.85H12.0523V92.97H14.5423L15.7023 93.64V96.38L14.5423 97.05H12.1123L10.9523 96.38V95.35H11.9523V96.15H14.7023V93.97H12.2123L11.0523 93.3ZM18.3677 92V97H17.3977V92H18.3677ZM17.3477 90.77V89.7H18.4177V90.77H17.3477ZM23.726 94.7V96.33L22.566 97H19.966V96.13H22.756V94.9H21.126L19.966 94.23V92.67L21.126 92H23.626V92.87H20.936V94.03H22.566L23.726 94.7ZM24.9273 92.87V92H25.8473V91.16L26.8173 90.6V92H28.0173V92.87H26.8173V96.13H28.0173V97H27.0073L25.8473 96.33V92.87H24.9273ZM33.3691 96.13V97H30.5791L29.4191 96.33V92.62L30.5791 91.95H32.2091L33.3691 92.62V94.84H30.3891V96.13H33.3691ZM30.3891 92.82V93.97H32.3991V92.82H30.3891ZM41.696 92.62V97H40.726V92.82H38.816V97H37.846V92.82H35.936V97H34.966V91.95H35.696L35.936 92.36L36.646 91.95H37.656L38.586 92.49L39.526 91.95H40.536L41.696 92.62ZM44.0661 94.95V96.18H46.0761V94.95H44.0661ZM44.2561 97.05L43.0961 96.38V94.75L44.2561 94.08H46.0761V92.87H43.5961V92H45.8861L47.0461 92.67V97.05H46.7861L46.0761 96.64L45.3661 97.05H44.2561ZM8.07129 110.13V111H5.28129L4.12129 110.33V106.62L5.28129 105.95H6.91129L8.07129 106.62V108.84H5.09129V110.13H8.07129ZM5.09129 106.82V107.97H7.10129V106.82H5.09129ZM16.3982 106.62V111H15.4282V106.82H13.5182V111H12.5482V106.82H10.6382V111H9.66816V105.95H10.3982L10.6382 106.36L11.3482 105.95H12.3582L13.2882 106.49L14.2282 105.95H15.2382L16.3982 106.62ZM19.6782 105.95H21.1882L22.3482 106.62V110.38L21.1882 111.05H19.6782L18.9682 110.64L18.2582 111.05H17.9982V103.7H18.9682V106.36L19.6782 105.95ZM18.9682 106.82V110.18H21.3782V106.82H18.9682ZM24.7155 108.95V110.18H26.7255V108.95H24.7155ZM24.9055 111.05L23.7455 110.38V108.75L24.9055 108.08H26.7255V106.87H24.2455V106H26.5355L27.6955 106.67V111.05H27.4355L26.7255 110.64L26.0155 111.05H24.9055ZM32.0871 106.87H30.2671V111H29.2971V106H30.0271L30.2671 106.41L30.9771 106H32.0871V106.87ZM34.1538 106.87V110.13H36.9338V111H34.3438L33.1838 110.33V106.67L34.3438 106H36.9338V106.87H34.1538ZM39.1003 108.95V110.18H41.1103V108.95H39.1003ZM39.2903 111.05L38.1303 110.38V108.75L39.2903 108.08H41.1103V106.87H38.6303V106H40.9203L42.0803 106.67V111.05H41.8203L41.1103 110.64L40.4003 111.05H39.2903ZM44.8418 105.95H46.3518L47.0618 106.36V103.7H48.0318V111.05H47.3018L47.0618 110.64L46.3518 111.05H44.8418L43.6818 110.38V106.62L44.8418 105.95ZM47.0618 110.18V106.82H44.6518V110.18H47.0618ZM53.8791 110.38L52.7191 111.05H50.7891L49.6291 110.38V106.62L50.7891 105.95H52.7191L53.8791 106.62V110.38ZM50.5991 106.82V110.18H52.9091V106.82H50.5991Z" fill="#939393"/>
</svg>
