<svg width="258" height="125" viewBox="0 0 258 125" fill="none" xmlns="http://www.w3.org/2000/svg">
<path d="M216.087 117.3V114.62L217.247 113.95H219.577L220.737 114.62V115.65H219.737V114.85H217.087V116.97H219.577L220.737 117.64V120.38L219.577 121.05H217.147L215.987 120.38V119.35H216.987V120.15H219.737V117.97H217.247L216.087 117.3ZM226.682 120.38L225.522 121.05H223.592L222.432 120.38V116.62L223.592 115.95H225.522L226.682 116.62V120.38ZM223.402 116.82V120.18H225.712V116.82H223.402ZM227.881 116.87V116H228.801V114.37L229.961 113.7H230.971V114.57H229.771V116H230.971V116.87H229.771V121H228.801V116.87H227.881ZM231.768 116.87V116H232.688V115.16L233.658 114.6V116H234.858V116.87H233.658V120.13H234.858V121H233.848L232.688 120.33V116.87H231.768ZM240.33 121L239.25 117.18H239.23L238.16 121H237.01L235.76 116H236.66L237.61 119.91H237.63L238.73 116H239.76L240.86 119.91H240.88L241.83 116H242.73L241.48 121H240.33ZM244.598 118.95V120.18H246.608V118.95H244.598ZM244.788 121.05L243.628 120.38V118.75L244.788 118.08H246.608V116.87H244.128V116H246.418L247.578 116.67V121.05H247.318L246.608 120.64L245.898 121.05H244.788ZM251.97 116.87H250.15V121H249.18V116H249.91L250.15 116.41L250.86 116H251.97V116.87ZM257.017 120.13V121H254.227L253.067 120.33V116.62L254.227 115.95H255.857L257.017 116.62V118.84H254.037V120.13H257.017ZM254.037 116.82V117.97H256.047V116.82H254.037Z" fill="#939393"/>
<path d="M235.5 85.5H228L230.5 82.875L228 80.25H235.5V76.05L236.5 75L237.5 76.05V80.25H242.5L245 82.875L242.5 85.5H237.5V93.9C238.03 93.9 238.539 94.1212 238.914 94.5151C239.289 94.9089 239.5 95.443 239.5 96H233.5C233.5 95.443 233.711 94.9089 234.086 94.5151C234.461 94.1212 234.97 93.9 235.5 93.9V85.5Z" fill="#6DFFB9"/>
<path d="M0.9 121V114H1.9V120.1H4.49V121H0.9ZM6.55516 116V121H5.58516V116H6.55516ZM5.53516 114.77V113.7H6.60516V114.77H5.53516ZM12.4035 116.62V121H11.4335V116.82H9.12352V121H8.15352V115.95H8.88352L9.12352 116.36L9.83352 115.95H11.2435L12.4035 116.62ZM14.9731 121L14.0031 120.44V119.54L14.7131 119.13L14.0031 118.72V116.67L15.1631 116H18.3531V116.34L17.4431 116.87L18.0531 117.23V118.61L16.8931 119.28H14.9731V120.13H17.1931L18.3531 120.8V122.38L17.1931 123.05H14.9631L13.8031 122.38V121.76L14.7731 121.2V122.2H17.3831V121H14.9731ZM14.9731 116.85V118.43H17.0831V116.85H14.9731ZM19.7551 120.38V116H20.7251V120.18H23.0351V116H24.0051V121.05H23.2751L23.0351 120.64L22.3251 121.05H20.9151L19.7551 120.38ZM26.3747 118.95V120.18H28.3847V118.95H26.3747ZM26.5647 121.05L25.4047 120.38V118.75L26.5647 118.08H28.3847V116.87H25.9047V116H28.1947L29.3547 116.67V121.05H29.0947L28.3847 120.64L27.6747 121.05H26.5647ZM31.9263 121L30.9563 120.44V119.54L31.6663 119.13L30.9563 118.72V116.67L32.1163 116H35.3063V116.34L34.3963 116.87L35.0063 117.23V118.61L33.8463 119.28H31.9263V120.13H34.1463L35.3063 120.8V122.38L34.1463 123.05H31.9163L30.7563 122.38V121.76L31.7263 121.2V122.2H34.3363V121H31.9263ZM31.9263 116.85V118.43H34.0363V116.85H31.9263ZM40.6582 120.13V121H37.8682L36.7082 120.33V116.62L37.8682 115.95H39.4982L40.6582 116.62V118.84H37.6782V120.13H40.6582ZM37.6782 116.82V117.97H39.6882V116.82H37.6782ZM48.9851 116.62V121H48.0151V116.82H46.1051V121H45.1351V116.82H43.2251V121H42.2551V115.95H42.9851L43.2251 116.36L43.9351 115.95H44.9451L45.8751 116.49L46.8151 115.95H47.8251L48.9851 116.62Z" fill="#939393"/>
<path d="M29.7727 79L33.7273 84.3333H36.3636C37.8268 84.3333 39 85.52 39 87V91H36.3636C36.3636 92.0609 35.947 93.0783 35.2054 93.8284C34.4638 94.5786 33.4579 95 32.4091 95C31.3603 95 30.3544 94.5786 29.6128 93.8284C28.8712 93.0783 28.4545 92.0609 28.4545 91H20.5455C20.5455 92.0609 20.1288 93.0783 19.3872 93.8284C18.6456 94.5786 17.6397 95 16.5909 95C15.5421 95 14.5362 94.5786 13.7946 93.8284C13.053 93.0783 12.6364 92.0609 12.6364 91H10V87C10 85.52 11.1732 84.3333 12.6364 84.3333L16.5909 79H29.7727ZM22.5227 81H17.5795L15.0882 84.3333H22.5227V81ZM24.5 81V84.3333H31.2755L28.7841 81H24.5ZM16.5909 89C16.0665 89 15.5636 89.2107 15.1928 89.5858C14.822 89.9609 14.6136 90.4696 14.6136 91C14.6136 91.5304 14.822 92.0391 15.1928 92.4142C15.5636 92.7893 16.0665 93 16.5909 93C17.1153 93 17.6182 92.7893 17.9891 92.4142C18.3599 92.0391 18.5682 91.5304 18.5682 91C18.5682 90.4696 18.3599 89.9609 17.9891 89.5858C17.6182 89.2107 17.1153 89 16.5909 89ZM32.4091 89C31.8847 89 31.3818 89.2107 31.011 89.5858C30.6401 89.9609 30.4318 90.4696 30.4318 91C30.4318 91.5304 30.6401 92.0391 31.011 92.4142C31.3818 92.7893 31.8847 93 32.4091 93C32.9335 93 33.4364 92.7893 33.8072 92.4142C34.178 92.0391 34.3864 91.5304 34.3864 91C34.3864 90.4696 34.178 89.9609 33.8072 89.5858C33.4364 89.2107 32.9335 89 32.4091 89Z" fill="#FE53D8"/>
<path d="M58 87L105 87" stroke="#5B5B5B" stroke-width="3" stroke-linecap="round" stroke-dasharray="2 10"/>
<path d="M170 87H210" stroke="#5B5B5B" stroke-width="3" stroke-linecap="round" stroke-dasharray="2 10"/>
<path d="M58 62.1917C65.5314 42.3519 89.2013 48.7998 95.1188 52.7678C101.036 56.7357 100.498 75.0877 87.5875 68.6397C74.6766 62.1917 92.429 30.448 124.168 42.8479C149.56 52.7678 176.708 34.4159 187.109 24L221 62.1917" stroke="#5B5B5B" stroke-width="3" stroke-linecap="round" stroke-dasharray="2 10"/>
<path d="M187 0C190.871 0 194 3.129 194 7C194 10.871 190.871 14 187 14C183.129 14 180 10.871 180 7C180 3.129 183.129 0 187 0ZM189.513 3.5L187 6.013L184.487 3.5L183.5 4.487L186.013 7L183.5 9.513L184.487 10.5L187 7.987L189.513 10.5L190.5 9.513L187.987 7L190.5 4.487L189.513 3.5Z" fill="#5B5B5B"/>
<rect x="120" y="32" width="33" height="27" rx="11" fill="#121212"/>
<path d="M114.005 121V114H117.495L118.655 114.67V117.64L117.495 118.31H115.005V121H114.005ZM115.005 114.9V117.41H117.655V114.9H115.005ZM120.925 118.95V120.18H122.935V118.95H120.925ZM121.115 121.05L119.955 120.38V118.75L121.115 118.08H122.935V116.87H120.455V116H122.745L123.905 116.67V121.05H123.645L122.935 120.64L122.225 121.05H121.115ZM128.297 116.87H126.477V121H125.507V116H126.237L126.477 116.41L127.187 116H128.297V116.87ZM130.164 118.95V120.18H132.174V118.95H130.164ZM130.354 121.05L129.194 120.38V118.75L130.354 118.08H132.174V116.87H129.694V116H131.984L133.144 116.67V121.05H132.884L132.174 120.64L131.464 121.05H130.354ZM135.905 115.95H137.415L138.125 116.36V113.7H139.095V121.05H138.365L138.125 120.64L137.415 121.05H135.905L134.745 120.38V116.62L135.905 115.95ZM138.125 120.18V116.82H135.715V120.18H138.125ZM141.663 116V121H140.693V116H141.663ZM140.643 114.77V113.7H141.713V114.77H140.643ZM144.231 121L143.261 120.44V119.54L143.971 119.13L143.261 118.72V116.67L144.421 116H147.611V116.34L146.701 116.87L147.311 117.23V118.61L146.151 119.28H144.231V120.13H146.451L147.611 120.8V122.38L146.451 123.05H144.221L143.061 122.38V121.76L144.031 121.2V122.2H146.641V121H144.231ZM144.231 116.85V118.43H146.341V116.85H144.231ZM155.743 116.62V121H154.773V116.82H152.863V121H151.893V116.82H149.983V121H149.013V115.95H149.743L149.983 116.36L150.693 115.95H151.703L152.633 116.49L153.573 115.95H154.583L155.743 116.62ZM158.113 118.95V120.18H160.123V118.95H158.113ZM158.303 121.05L157.143 120.38V118.75L158.303 118.08H160.123V116.87H157.643V116H159.933L161.093 116.67V121.05H160.833L160.123 120.64L159.413 121.05H158.303Z" fill="#939393"/>
<path d="M128 77.5H148C149.05 77.5 150 78.45 150 79.5V93.5C150 94.55 149.05 95.5 148 95.5H128C126.95 95.5 126 94.55 126 93.5V79.5C126 78.45 126.95 77.5 128 77.5ZM140 80.5V81.5H148V80.5H140ZM140 82.5V83.5H147.5H148V82.5H140ZM140 84.5V85.5H147V84.5H140ZM134 88.41C132 88.41 128 89.5 128 91.5V92.5H140V91.5C140 89.5 136 88.41 134 88.41ZM134 80.5C133.204 80.5 132.441 80.8161 131.879 81.3787C131.316 81.9413 131 82.7044 131 83.5C131 84.2956 131.316 85.0587 131.879 85.6213C132.441 86.1839 133.204 86.5 134 86.5C134.796 86.5 135.559 86.1839 136.121 85.6213C136.684 85.0587 137 84.2956 137 83.5C137 82.7044 136.684 81.9413 136.121 81.3787C135.559 80.8161 134.796 80.5 134 80.5Z" fill="white"/>
<path d="M135.5 34.5C133.56 34.5 131.85 35.74 131.23 37.58C129.36 37.94 128 39.59 128 41.5C128 43.71 129.79 45.5 132 45.5V53.5H143V51.5H146C146.55 51.5 147 51.05 147 50.5V42.5C147 41.95 146.55 41.5 146 41.5H144V39.5C144 37.29 142.21 35.5 140 35.5H138.32C137.5 34.85 136.53 34.5 135.5 34.5ZM135.5 36.5C136.29 36.5 137.03 36.87 137.5 37.5H140C141.11 37.5 142 38.4 142 39.5H138C136 39.5 135.32 40.63 134.5 42.13C133.68 43.63 132 43.5 132 43.5C130.89 43.5 130 42.61 130 41.5C130 40.4 130.89 39.5 132 39.5H133V39C133 37.62 134.12 36.5 135.5 36.5ZM143 43.5H145V49.5H143V43.5Z" fill="#FFEC42"/>
</svg>
