<svg width="127" height="77" viewBox="0 0 127 77" fill="none" xmlns="http://www.w3.org/2000/svg">
<path d="M2.54 5V15H0.6V5H2.54ZM0.5 2.54V0.4H2.64V2.54H0.5ZM4.93672 6.74V5H6.77672V1.74L9.09672 0.4H11.1167V2.14H8.71672V5H11.1167V6.74H8.71672V15H6.77672V6.74H4.93672Z" fill="#6DFFB9"/>
<path d="M20.5055 1.8V17.6H23.1655V19H21.2255L18.9055 17.66V1.74L21.2255 0.4H23.1655V1.8H20.5055ZM55.8873 17.6V1.8H53.2273V0.4H55.1673L57.4873 1.74V17.66L55.1673 19H53.2273V17.6H55.8873ZM68.5883 10.5V17.6H71.2483V19H69.3083L66.9883 17.66V10.4H65.2883V9H66.9883V1.74L69.3083 0.4H71.2483V1.8H68.5883V8.9L67.2483 9.68V9.72L68.5883 10.5ZM94.3898 35.74V34H96.2298V32.32L98.1698 31.2V34H100.57V35.74H98.1698V42.26H100.57V44H98.5498L96.2298 42.66V35.74H94.3898ZM108.953 35.74H105.313V44H103.373V34H104.833L105.313 34.82L106.733 34H108.953V35.74ZM111.147 42.76V34H113.087V42.36H117.707V34H119.647V44.1H118.187L117.707 43.28L116.287 44.1H113.467L111.147 42.76ZM123.246 37V34H126.246V37H123.246ZM123.246 48V41H126.246V41.84L124.086 48H123.246ZM2.86 75.6V68.5L4.2 67.72V67.68L2.86 66.9V59.8H0.2V58.4H2.14L4.46 59.74V67H6.16V68.4H4.46V75.66L2.14 77H0.2V75.6H2.86Z" fill="white"/>
<path d="M25.1711 6.74V5H27.0111V3.32L28.9511 2.2V5H31.3511V6.74H28.9511V13.26H31.3511V15H29.3311L27.0111 13.66V6.74H25.1711ZM39.7347 6.74H36.0947V15H34.1547V5H35.6147L36.0947 5.82L37.5147 5H39.7347V6.74ZM41.9281 13.76V5H43.8681V13.36H48.4881V5H50.4281V15.1H48.9681L48.4881 14.28L47.0681 15.1H44.2481L41.9281 13.76Z" fill="#FFEC42"/>
<path d="M37.3519 35.74H33.7119V44H31.7719V34H33.2319L33.7119 34.82L35.1319 34H37.3519V35.74ZM47.4453 42.26V44H41.8653L39.5453 42.66V35.24L41.8653 33.9H45.1253L47.4453 35.24V39.68H41.4853V42.26H47.4453ZM41.4853 35.64V37.94H45.5053V35.64H41.4853ZM49.8391 35.74V34H51.6791V32.32L53.6191 31.2V34H56.0191V35.74H53.6191V42.26H56.0191V44H53.9991L51.6791 42.66V35.74H49.8391ZM58.8227 42.76V34H60.7627V42.36H65.3827V34H67.3227V44.1H65.8627L65.3827 43.28L63.9627 44.1H61.1427L58.8227 42.76ZM76.1019 35.74H72.4619V44H70.5219V34H71.9819L72.4619 34.82L73.8819 34H76.1019V35.74ZM86.7953 35.24V44H84.8553V35.64H80.2353V44H78.2953V33.9H79.7553L80.2353 34.72L81.6553 33.9H84.4753L86.7953 35.24Z" fill="#FE53D8"/>
</svg>
