<svg width="65" height="91" viewBox="0 0 65 91" fill="none" xmlns="http://www.w3.org/2000/svg">
<path d="M39.824 64L34.384 54.548H31.426V64H27.55V40.37H35.71C37.5233 40.37 39.0533 40.6873 40.3 41.322C41.5693 41.9567 42.51 42.8067 43.122 43.872C43.7567 44.9373 44.074 46.1273 44.074 47.442C44.074 48.9833 43.6207 50.3887 42.714 51.658C41.83 52.9047 40.4587 53.7547 38.6 54.208L44.448 64H39.824ZM31.426 51.454H35.71C37.1607 51.454 38.2487 51.0913 38.974 50.366C39.722 49.6407 40.096 48.666 40.096 47.442C40.096 46.218 39.7333 45.266 39.008 44.586C38.2827 43.8833 37.1833 43.532 35.71 43.532H31.426V51.454ZM52.9084 43.498V50.434H61.0684V53.596H52.9084V60.838H62.0884V64H49.0324V40.336H62.0884V43.498H52.9084Z" fill="white"/>
<path d="M42.83 18.36C42.83 19.42 42.58 20.42 42.08 21.36C41.58 22.3 40.78 23.07 39.68 23.67C38.58 24.25 37.17 24.54 35.45 24.54H31.67V33H28.25V12.15H35.45C37.05 12.15 38.4 12.43 39.5 12.99C40.62 13.53 41.45 14.27 41.99 15.21C42.55 16.15 42.83 17.2 42.83 18.36ZM35.45 21.75C36.75 21.75 37.72 21.46 38.36 20.88C39 20.28 39.32 19.44 39.32 18.36C39.32 16.08 38.03 14.94 35.45 14.94H31.67V21.75H35.45ZM58.6618 28.74H49.9318L48.4318 33H44.8618L52.3318 12.12H56.2918L63.7618 33H60.1618L58.6618 28.74ZM57.7018 25.95L54.3118 16.26L50.8918 25.95H57.7018Z" fill="white"/>
<path d="M30.832 72.88C32.016 72.88 33.0507 73.1093 33.936 73.568C34.832 74.016 35.52 74.6667 36 75.52C36.4907 76.3627 36.736 77.3493 36.736 78.48C36.736 79.6107 36.4907 80.592 36 81.424C35.52 82.256 34.832 82.896 33.936 83.344C33.0507 83.7813 32.016 84 30.832 84H27.2V72.88H30.832ZM30.832 82.512C32.1333 82.512 33.1307 82.16 33.824 81.456C34.5173 80.752 34.864 79.76 34.864 78.48C34.864 77.1893 34.5173 76.1813 33.824 75.456C33.1307 74.7307 32.1333 74.368 30.832 74.368H29.024V82.512H30.832ZM45.2478 81.728H40.5918L39.7918 84H37.8878L41.8718 72.864H43.9838L47.9678 84H46.0478L45.2478 81.728ZM44.7358 80.24L42.9278 75.072L41.1038 80.24H44.7358ZM40.3198 71.952C40.4051 71.3333 40.6078 70.8693 40.9278 70.56C41.2478 70.24 41.6478 70.08 42.1278 70.08C42.3304 70.08 42.5064 70.112 42.6558 70.176C42.8051 70.24 42.9864 70.336 43.1998 70.464C43.3598 70.5707 43.4931 70.6507 43.5998 70.704C43.7171 70.7573 43.8451 70.784 43.9838 70.784C44.1651 70.784 44.3144 70.7307 44.4318 70.624C44.5598 70.5067 44.6398 70.336 44.6718 70.112H45.6958C45.6104 70.7307 45.4078 71.2 45.0878 71.52C44.7678 71.8293 44.3678 71.984 43.8878 71.984C43.6851 71.984 43.5038 71.952 43.3438 71.888C43.1838 71.8133 43.0078 71.712 42.8158 71.584C42.6238 71.4667 42.4744 71.3867 42.3678 71.344C42.2718 71.2907 42.1598 71.264 42.0318 71.264C41.8504 71.264 41.6958 71.3227 41.5677 71.44C41.4504 71.5573 41.3758 71.728 41.3438 71.952H40.3198ZM54.772 84.112C53.7373 84.112 52.7827 83.872 51.908 83.392C51.044 82.9013 50.356 82.224 49.844 81.36C49.3427 80.4853 49.092 79.504 49.092 78.416C49.092 77.328 49.3427 76.352 49.844 75.488C50.356 74.624 51.044 73.952 51.908 73.472C52.7827 72.9813 53.7373 72.736 54.772 72.736C55.8173 72.736 56.772 72.9813 57.636 73.472C58.5107 73.952 59.1987 74.624 59.7 75.488C60.2013 76.352 60.452 77.328 60.452 78.416C60.452 79.504 60.2013 80.4853 59.7 81.36C59.1987 82.224 58.5107 82.9013 57.636 83.392C56.772 83.872 55.8173 84.112 54.772 84.112ZM54.772 82.528C55.508 82.528 56.164 82.3627 56.74 82.032C57.316 81.6907 57.764 81.2107 58.084 80.592C58.4147 79.9627 58.58 79.2373 58.58 78.416C58.58 77.5947 58.4147 76.8747 58.084 76.256C57.764 75.6373 57.316 75.1627 56.74 74.832C56.164 74.5013 55.508 74.336 54.772 74.336C54.036 74.336 53.38 74.5013 52.804 74.832C52.228 75.1627 51.7747 75.6373 51.444 76.256C51.124 76.8747 50.964 77.5947 50.964 78.416C50.964 79.2373 51.124 79.9627 51.444 80.592C51.7747 81.2107 52.228 81.6907 52.804 82.032C53.38 82.3627 54.036 82.528 54.772 82.528Z" fill="white"/>
<rect width="80" height="2" transform="matrix(-4.37114e-08 -1 -1 4.37114e-08 19 85)" fill="#FFEC42"/>
<rect width="78" height="4" transform="matrix(-2.31413e-08 -1 -1 8.2566e-08 11 91)" fill="#FE53D8"/>
<rect width="60" height="2" transform="matrix(-2.31413e-08 -1 -1 8.2566e-08 2 85)" fill="#6DFFB9"/>
</svg>
