<svg width="235" height="145" viewBox="0 0 235 145" fill="none" xmlns="http://www.w3.org/2000/svg">
<path d="M212 75H207.82C207.4 73.84 206.3 73 205 73C203.7 73 202.6 73.84 202.18 75H198C197.47 75 196.961 75.2107 196.586 75.5858C196.211 75.9609 196 76.4696 196 77V91C196 91.5304 196.211 92.0391 196.586 92.4142C196.961 92.7893 197.47 93 198 93H212C212.53 93 213.039 92.7893 213.414 92.4142C213.789 92.0391 214 91.5304 214 91V77C214 76.4696 213.789 75.9609 213.414 75.5858C213.039 75.2107 212.53 75 212 75ZM205 75C205.265 75 205.52 75.1054 205.707 75.2929C205.895 75.4804 206 75.7348 206 76C206 76.2652 205.895 76.5196 205.707 76.7071C205.52 76.8946 205.265 77 205 77C204.735 77 204.48 76.8946 204.293 76.7071C204.105 76.5196 204 76.2652 204 76C204 75.7348 204.105 75.4804 204.293 75.2929C204.48 75.1054 204.735 75 205 75ZM200 79H210V77H212V91H198V77H200V79Z" fill="white"/>
<path d="M234.5 37L234.5 54.5L172 54.5L172 37" stroke="#676767" stroke-linejoin="round"/>
<path d="M205 54.5V62.5" stroke="#676767" stroke-linejoin="round"/>
<path d="M208 29H226V33H208V29ZM209 34H225V47H209V34ZM214.5 37C214.367 37 214.24 37.0527 214.146 37.1464C214.053 37.2402 214 37.3674 214 37.5V39H220V37.5C220 37.3674 219.947 37.2402 219.854 37.1464C219.76 37.0527 219.633 37 219.5 37H214.5Z" fill="#FE53D8"/>
<path d="M181 29H199V33H181V29ZM182 34H198V47H182V34ZM187.5 37C187.367 37 187.24 37.0527 187.146 37.1464C187.053 37.2402 187 37.3674 187 37.5V39H193V37.5C193 37.3674 192.947 37.2402 192.854 37.1464C192.76 37.0527 192.633 37 192.5 37H187.5Z" fill="#FFEC42"/>
<g filter="url(#filter0_d_410_25)">
<rect x="20" y="10" width="75" height="105" rx="12" fill="url(#paint0_linear_410_25)" shape-rendering="crispEdges"/>
</g>
<path d="M36 51H54V55H36V51ZM37 56H53V69H37V56ZM42.5 59C42.3674 59 42.2402 59.0527 42.1464 59.1464C42.0527 59.2402 42 59.3674 42 59.5V61H48V59.5C48 59.3674 47.9473 59.2402 47.8536 59.1464C47.7598 59.0527 47.6326 59 47.5 59H42.5Z" fill="#FE53D8"/>
<path d="M61 51H79V55H61V51ZM62 56H78V69H62V56ZM67.5 59C67.3674 59 67.2402 59.0527 67.1464 59.1464C67.0527 59.2402 67 59.3674 67 59.5V61H73V59.5C73 59.3674 72.9473 59.2402 72.8536 59.1464C72.7598 59.0527 72.6326 59 72.5 59H67.5Z" fill="#FFEC42"/>
<path d="M61 75H79V79H61V75ZM62 80H78V93H62V80ZM67.5 83C67.3674 83 67.2402 83.0527 67.1464 83.1464C67.0527 83.2402 67 83.3674 67 83.5V85H73V83.5C73 83.3674 72.9473 83.2402 72.8536 83.1464C72.7598 83.0527 72.6326 83 72.5 83H67.5Z" fill="white"/>
<path d="M36 75H54V79H36V75ZM37 80H53V93H37V80ZM42.5 83C42.3674 83 42.2402 83.0527 42.1464 83.1464C42.0527 83.2402 42 83.3674 42 83.5V85H48V83.5C48 83.3674 47.9473 83.2402 47.8536 83.1464C47.7598 83.0527 47.6326 83 47.5 83H42.5Z" fill="#6DFFB9"/>
<path d="M48 27H66V31H48V27ZM49 32H65V45H49V32ZM54.5 35C54.3674 35 54.2402 35.0527 54.1464 35.1464C54.0527 35.2402 54 35.3674 54 35.5V37H60V35.5C60 35.3674 59.9473 35.2402 59.8536 35.1464C59.7598 35.0527 59.6326 35 59.5 35H54.5Z" fill="white"/>
<defs>
<filter id="filter0_d_410_25" x="0" y="0" width="115" height="145" filterUnits="userSpaceOnUse" color-interpolation-filters="sRGB">
<feFlood flood-opacity="0" result="BackgroundImageFix"/>
<feColorMatrix in="SourceAlpha" type="matrix" values="0 0 0 0 0 0 0 0 0 0 0 0 0 0 0 0 0 0 127 0" result="hardAlpha"/>
<feOffset dy="10"/>
<feGaussianBlur stdDeviation="10"/>
<feComposite in2="hardAlpha" operator="out"/>
<feColorMatrix type="matrix" values="0 0 0 0 0 0 0 0 0 0 0 0 0 0 0 0 0 0 0.25 0"/>
<feBlend mode="normal" in2="BackgroundImageFix" result="effect1_dropShadow_410_25"/>
<feBlend mode="normal" in="SourceGraphic" in2="effect1_dropShadow_410_25" result="shape"/>
</filter>
<linearGradient id="paint0_linear_410_25" x1="54.5" y1="115" x2="54" y2="63" gradientUnits="userSpaceOnUse">
<stop/>
<stop offset="1" stop-opacity="0"/>
</linearGradient>
</defs>
</svg>
