<svg width="227" height="119" viewBox="0 0 227 119" fill="none" xmlns="http://www.w3.org/2000/svg">
<path d="M12.6667 40.4444H21.1111C22.2309 40.4444 23.3049 40.8893 24.0967 41.6811C24.8885 42.4729 25.3333 43.5469 25.3333 44.6667V48.8889C25.3333 50.0087 24.8885 51.0826 24.0967 51.8745C23.3049 52.6663 22.2309 53.1111 21.1111 53.1111H16.8889V61.5556H12.6667V40.4444ZM16.8889 44.6667V48.8889H21.1111V44.6667H16.8889ZM4.22222 32H33.7778C34.8976 32 35.9715 32.4448 36.7633 33.2367C37.5552 34.0285 38 35.1024 38 36.2222V65.7778C38 66.8976 37.5552 67.9715 36.7633 68.7633C35.9715 69.5552 34.8976 70 33.7778 70H4.22222C3.10242 70 2.02848 69.5552 1.23666 68.7633C0.44484 67.9715 0 66.8976 0 65.7778V36.2222C0 35.1024 0.44484 34.0285 1.23666 33.2367C2.02848 32.4448 3.10242 32 4.22222 32ZM4.22222 36.2222V65.7778H33.7778V36.2222H4.22222Z" fill="#FE53D8"/>
<rect x="30.5" y="15.5" width="34" height="29" rx="2.5" fill="#FFEC42" stroke="#1E1E1E" stroke-width="3"/>
<path d="M38 22H58V32H54V40H52V32H44V40H42V32H38V22ZM54.97 30L56 28.97V26.15L52.15 30H54.97ZM49.32 30L55.32 24H52.5L46.5 30H49.32ZM43.66 30L49.66 24H46.83L40.83 30H43.66ZM41.18 24L40 25.18V28L44 24H41.18Z" fill="black"/>
<rect x="183.414" y="68.1923" width="29.3722" height="29.3459" rx="14.6729" transform="rotate(-45.0241 183.414 68.1923)" stroke="#FF6442" stroke-width="2"/>
<path d="M203.985 73.1451H204.051C204.131 73.6615 204.31 74.1576 204.581 74.6056H201.044C201.044 74.2183 201.199 73.8468 201.475 73.5729C201.751 73.299 202.125 73.1451 202.515 73.1451V67.3028H197L198.838 65.4771L197 63.6514H202.515V60.7303L203.25 60L203.985 60.7303V63.6514H207.662L209.5 65.4771L207.662 67.3028H203.985V73.1451ZM209.956 69.8296L208.397 71.3851L206.838 69.8296L205.794 70.8666L207.36 72.4148L205.794 73.963L206.838 75L208.397 73.4445L209.956 75L211 73.963L209.434 72.4148L211 70.8666L209.956 69.8296Z" fill="#FF6442"/>
<rect x="181.791" y="0.131348" width="29.2444" height="30.0347" rx="14.6222" transform="rotate(-0.257257 181.791 0.131348)" fill="#6DFFB9"/>
<path d="M195.735 15H190L191.912 13L190 11H195.735V7.8L196.5 7L197.265 7.8V11H201.088L203 13L201.088 15H197.265V21.4C197.67 21.4 198.059 21.5686 198.346 21.8686C198.633 22.1687 198.794 22.5757 198.794 23H194.206C194.206 22.5757 194.367 22.1687 194.654 21.8686C194.941 21.5686 195.33 21.4 195.735 21.4V15Z" fill="black"/>
<path d="M104 59H98L96 57L98 55H104V52L105 51L106 52V53H112L114 55L112 57H106V59H112L114 61L112 63H106V69C106.53 69 107.039 69.2107 107.414 69.5858C107.789 69.9609 108 70.4696 108 71H102C102 70.4696 102.211 69.9609 102.586 69.5858C102.961 69.2107 103.47 69 104 69V59Z" fill="white"/>
<path d="M31.5 83.5C53.9 108.7 77.8333 94 87 83.5" stroke="#5B5B5B" stroke-width="3" stroke-linecap="round" stroke-dasharray="2 10"/>
<path d="M114 36C128.5 12.5 153 16 165.5 15" stroke="#5B5B5B" stroke-width="3" stroke-linecap="round" stroke-dasharray="2 10"/>
<path d="M114.5 83C117.5 98.5 162.5 122.5 193 91" stroke="#5B5B5B" stroke-width="3" stroke-linecap="round" stroke-dasharray="2 10"/>
<rect x="146" y="94.1061" width="23.6144" height="24.2526" rx="11.8072" transform="rotate(-0.257257 146 94.1061)" fill="#131313"/>
<path d="M158 99C161.871 99 165 102.129 165 106C165 109.871 161.871 113 158 113C154.129 113 151 109.871 151 106C151 102.129 154.129 99 158 99ZM160.513 102.5L158 105.013L155.487 102.5L154.5 103.487L157.013 106L154.5 108.513L155.487 109.5L158 106.987L160.513 109.5L161.5 108.513L158.987 106L161.5 103.487L160.513 102.5Z" fill="#5B5B5B"/>
</svg>
